<?xml version="1.0" encoding="UTF-8"?>
<svg id="Layer_2" data-name="Layer 2" xmlns="http://www.w3.org/2000/svg" viewBox="0 0 62.56 62.57">
  <defs>
    <style>
      .cls-1 {
        stroke-width: 0px;
      }
    </style>
  </defs>
  <g id="Layer_1-2" data-name="Layer 1">
    <polygon class="cls-1" points="50.56 62.57 33.38 62.57 33.38 45.88 29.19 45.88 29.19 62.57 12.01 62.57 0 50.56 0 33.37 12.5 33.37 12.5 45.38 16.69 49.57 16.69 33.38 45.88 33.38 45.88 49.57 50.06 45.38 50.06 17.18 45.88 13 45.88 29.19 0 29.19 0 12.01 12.01 0 29.2 0 29.2 12.5 17.18 12.5 13 16.69 33.38 16.69 33.38 0 50.56 0 62.56 12.01 62.56 50.56 50.56 62.57"/>
  </g>
</svg>