<?xml version="1.0" encoding="UTF-8"?>
<svg id="Layer_2" data-name="Layer 2" xmlns="http://www.w3.org/2000/svg" xmlns:xlink="http://www.w3.org/1999/xlink" viewBox="0 0 900.05 348.82">
  <defs>
    <style>
      .cls-1 {
        fill: #c8ec00;
      }

      .cls-1, .cls-2, .cls-3 {
        stroke-width: 0px;
      }

      .cls-4 {
        opacity: .7;
      }

      .cls-2 {
        fill: #ed1c24;
      }

      .cls-3 {
        fill: url(#radial-gradient);
      }
    </style>
    <radialGradient id="radial-gradient" cx="706.61" cy="197.88" fx="763.75" fy="147.33" r="76.3" gradientUnits="userSpaceOnUse">
      <stop offset=".47" stop-color="#00aeef"/>
      <stop offset=".56" stop-color="#01a9eb"/>
      <stop offset=".66" stop-color="#069de2"/>
      <stop offset=".76" stop-color="#0d88d3"/>
      <stop offset=".85" stop-color="#186bbd"/>
      <stop offset=".95" stop-color="#2646a2"/>
      <stop offset="1" stop-color="#2e3192"/>
    </radialGradient>
  </defs>
  <g id="Layer_1-2" data-name="Layer 1">
    <g>
      <g>
        <rect class="cls-2" x="870.99" width="29.06" height="232.48"/>
        <path class="cls-2" d="m841.93,0v232.48c0,3.07-.12,6.16-.36,9.21-.75,9.7-2.74,19.3-5.89,28.5-12.25,36.42-43.64,65.51-80.92,74.86-18.95,4.89-39.17,4.89-58.12,0-38.43-9.62-70.53-40.25-82-78.16-6.59-18.52-5.08-44.02-5.18-63.48h29.06c-.78,38.14-1.14,66.48,29.41,94.34,37.61,34.3,100,27.07,128.86-14.82,8.26-11.59,13.61-25.23,15.38-39.36.47-3.68.7-7.39.7-11.1V0s29.06,0,29.06,0Z"/>
        <path class="cls-2" d="m526.81,203.49c-26.15,2.29-42.83-27.15-26.02-47.73,17.06-20.78,51.58-8.29,51.39,18.59h29.06c0-3.58-.32-7.17-.98-10.69-2.34-12.81-9.21-24.73-19.08-33.23-2.4-2.1-5-3.99-7.72-5.66h0c-20.91-13.19-49.94-10.8-68.39,5.66-9.86,8.5-16.74,20.41-19.08,33.23-2.55,13.5-.13,27.88,6.79,39.75h-36.84v-87.18h-29.06v87.18h-29.06v-87.18h-29.06v87.18h-29.06v-87.18h-29.06v87.18h-58.12c-.43-17.56,2.63-42.78-7.78-58.12-35.23-57.7-121.89-22.23-106.63,43.58,1.43,5.57,3.7,10.92,6.71,15.81h0c4.78,7.81,11.43,14.46,19.24,19.24h0c15.65,11.14,41.29,8.27,59.39,8.54.16,25.15-11.3,49.96-30.48,66.21-38.03,33.56-100.04,25.52-128.34-16.53-17.8-24.67-15.71-50.15-15.54-78.74H.05c.24,15.58-1.15,39.16,2.72,54.16,6.93,32.16,28.31,60.68,57.09,76.54,77.03,42.95,172.88-13.47,172.66-101.65h348.72v-29.06h-54.45s.01.05.02.08Zm-323.34-.08c-12-.8-36.29,3.11-46.16-5.57-19.26-13.52-14.01-44.76,8.56-51.27h0c7.41-2.33,16.01-1.44,22.79,2.45,20.49,11.33,13.73,35.36,14.81,54.39Z"/>
        <path class="cls-2" d="m544.92,58.12c-.49,28.65-43.1,28.64-43.59,0,.49-28.65,43.1-28.64,43.59,0Z"/>
        <path class="cls-2" d="m225.27,58.12c-.49,28.65-43.1,28.64-43.59,0,.49-28.65,43.1-28.64,43.59,0Z"/>
        <path class="cls-2" d="m167.15,58.12c-.49,28.65-43.1,28.64-43.59,0,.49-28.65,43.1-28.64,43.59,0Z"/>
      </g>
      <g>
        <circle class="cls-3" cx="725.66" cy="233.7" r="76.28"/>
        <g class="cls-4">
          <path class="cls-1" d="m708.6,242.97s-.06.09-.08.14c-.04.06-.09.11-.16.14-.02,0-.04.01-.05.03-.02.02-.03.04-.03.07,0,.08.03.15.02.23,0,.05-.02.11,0,.16.03.04.09.05.13.03.05-.02.08-.05.12-.09.06-.06.12-.12.18-.18.09-.09.18-.19.17-.31-.01-.13-.17-.36-.31-.22Z"/>
          <path class="cls-1" d="m753.39,256.5s0,.09-.02.13c-.01.02-.03.04-.04.06-.02.04,0,.09.03.13.03.04.06.08.06.12,0,.02,0,.04.02.05,0,0,.02,0,.03,0,.09.01.19,0,.28-.02.05-.01.1-.04.13-.07.04-.04.06-.09.04-.14-.02-.05-.08-.09-.13-.1-.04,0-.09,0-.12-.04-.01-.02-.01-.05-.01-.07,0-.1.05-.34-.09-.37-.16-.03-.18.21-.18.31Z"/>
          <path class="cls-1" d="m764.79,264.34c-.04.1-.03.21-.04.32-.02.43-.34.78-.65,1.08.01-.19-.3-.24-.43-.1-.13.14-.13.36-.17.55-.08.46-.37.85-.65,1.23-.08-.1-.22-.13-.33-.09.09.23-.15.45-.35.58-.19.12-.38.24-.58.37-.08.05-.17.11-.23.18-.07.09-.12.22-.23.22-.06,0-.12-.03-.17-.05-.17-.04-.32.09-.46.2-.14.11-.34.2-.47.08-.04.1-.09.2-.13.31-.14-.03-.3-.06-.43,0-.14.05-.23.23-.16.35-.23,0-.46-.01-.68-.02.12.26.09.59-.09.81-.08.1-.19.18-.27.28-.12.15-.16.35-.21.53-.09.37-.17.74-.26,1.11-.02.07-.03.15-.01.23.02.07.07.12.1.18.08.14.06.34-.05.46.39.36.3,1.1-.17,1.36-.15.09-.34.13-.44.28-.07.11-.08.25-.14.37-.14.29-.52.36-.72.62-.1.13-.14.3-.18.46-.1.43-.2.86-.3,1.28-.01.06-.03.12,0,.18.03.07.1.1.15.14.29.23.22.68.09,1.02s-.31.72-.16,1.06c.12.27.41.42.7.51.16.05.35.08.46-.03.06.15.18.33.33.28.13-.04.15-.21.26-.29.12-.08.28-.03.42-.04.09-.01.17-.05.25-.09.33-.16.66-.32.98-.48.14-.07.29-.14.41-.25.07-.06.13-.14.2-.21.18-.19.42-.37.45-.64.14-.24.28-.48.42-.72.13-.22.26-.46.21-.7.14-.07.29-.15.43-.22-.07-.32.08-.66.29-.92s.46-.48.65-.75c.19-.26.32-.55.44-.85.12-.3.23-.59.33-.9.11-.31.21-.63.39-.91.23-.37.6-.65.77-1.05.19-.46.1-1.04.4-1.44.08-.11.19-.2.29-.3.41-.44.55-1.12.33-1.68-.03-.09-.07-.21,0-.27.13-.1.24.16.36.27.13.12.37.06.47-.09.1-.15.11-.34.1-.52-.04-.45-.19-.9-.08-1.34.07-.27.24-.54.17-.81-.02-.09-.07-.17-.11-.26-.05-.13-.07-.27-.09-.41-.04-.26-.16-1.11-.46-1.18-.22-.06-.86.53-.94.71Z"/>
          <path class="cls-1" d="m741.69,197.81c-.21.01-.43-.02-.64-.01-.04,0-.08,0-.11.02-.04.02-.06.07-.09.1-.21.29-.63.35-.84.63-.03.05-.06.11-.03.16.16.06.36-.09.51-.01.06.03.09.08.14.12.16.13.39.12.58.03s.33-.24.48-.37c.04-.04.09-.08.15-.1.07-.02.14-.01.21-.03.09-.03.16-.1.23-.17.11-.11.31-.48.07-.56-.15-.05-.48.18-.66.19Z"/>
          <path class="cls-1" d="m731.38,198.04c-.13.01-.27.02-.36-.07-.03-.03-.05-.08-.09-.11-.13-.12-.33,0-.51.01-.25.02-.5-.18-.74-.1-.09.1-.1.25-.04.36.06.11.19.18.32.17.1-.01.23-.07.3.01.02.03.03.07.06.1.04.05.12.03.18.01.23-.07.52-.11.67.08.02.03.04.06.07.07.03.01.07,0,.11,0,.36-.09.73.05,1.1.01.02,0,.04,0,.05-.02.01-.02,0-.04,0-.06,0-.08.1-.11.17-.13.08-.02.16-.09.12-.16-.08-.07-.2-.05-.3-.04-.1,0-.14-.04-.21-.09-.1-.06-.03-.08-.19-.09-.23-.02-.48.02-.7.05Z"/>
          <path class="cls-1" d="m719.75,194.51s-.06.06-.1.09c-.08.05-.18.02-.27,0-.26-.04-.53.01-.79-.02-.05,0-.1-.02-.15,0-.1.03-.17.14-.27.17-.11.04-.23-.02-.31-.1-.01-.02-.03-.03-.05-.04-.02-.01-.05,0-.07-.02-.04-.01-.06-.05-.09-.09-.07-.09-.2-.13-.31-.09-.07.03-.12.08-.18.11-.11.05-.24.03-.36.05-.09.01-.17.05-.25.08-.01,0-.03.01-.04.02-.01.01-.01.03-.02.04-.02.09-.03.18-.03.27.18.02.36.09.52.2.02.01.04.03.07.04.02,0,.04,0,.07.01.13.02.25.09.33.19.04.05.09.11.14.08-.02.04.02.08.06.09.04.01.08,0,.13,0,.09-.01.19,0,.25.07.02.02.03.05.06.07.02.01.04.01.06.02.06.03.05.12.1.17.02.02.05.03.08.04.07.02.15.04.22.07.07.02.13.04.2.04.02,0,.05,0,.07,0,.03,0,.05.03.07.05.09.09.18.17.3.21.11.04.23.03.33,0,.03-.01.06-.03.08-.05.04-.04.05-.09.06-.14.03-.13.05-.26.06-.4.01-.16,0-.32-.02-.48,0-.02,0-.04,0-.06s.01-.04.02-.06c.03-.05.06-.1.09-.15.04-.08.09-.15.15-.21.08-.07.27-.18.15-.31-.09-.09-.29-.03-.37.04Z"/>
          <path class="cls-1" d="m713.61,188.91c-.05.03-.11.03-.17.04-.11.03-.2.1-.28.17-.05.04-.1.08-.12.14-.02.07,0,.15-.01.22-.03.09-.13.17-.09.25.04.08.18.08.21.17.01.04,0,.09,0,.13.03.05.1.05.15.09.03.03.04.08.08.1.02.01.04.02.06.02.07.01.13.02.2.03.05,0,.1.01.14-.02.03-.03.04-.07.05-.12.01-.17-.05-.36.06-.48.05-.06.12-.1.13-.18,0-.06-.05-.11-.08-.16-.04-.07-.03-.16-.03-.24,0-.05-.02-.21-.06-.25-.1-.08-.16.03-.23.07Z"/>
          <path class="cls-1" d="m713.06,190.79s-.05-.02-.07-.01c-.02,0-.04.02-.06.04-.07.08-.13.16-.2.23-.01.01-.03.03-.05.03-.05,0-.07-.06-.09-.1-.06-.09-.21-.06-.3,0-.09.07-.18.16-.2.27-.03.11.01.25.11.31.04.02.09.04.12.07.07.06.06.18.04.27-.04.23-.09.46-.13.69-.04.19-.07.37-.11.56,0,.04-.02.09,0,.13.01.02.03.03.05.05.09.08.21.16.33.13.08-.02.13-.08.2-.13.12-.1.29-.15.44-.14.07,0,.15.02.22,0,.14-.05.16-.24.14-.38.09,0,.16-.07.19-.16.03-.08.02-.17.03-.26.01-.08.03-.17.04-.25,0-.06,0-.11,0-.17.02-.4.31-.75.07-1.15-.07-.11-.17-.17-.3-.19-.09-.01-.19-.01-.27.03-.07.03-.13.13-.21.12Z"/>
          <path class="cls-1" d="m706.08,192.08c-.07.01-.14.04-.18.09-.02.02-.03.05-.05.06-.07.06-.19,0-.26.05-.04.03-.05.08-.05.12,0,.01,0,.03,0,.04,0,0,.01.01.02.02.09.06.2.05.29.11.05.04.08.09.12.13.09.08.23.09.33.02.04-.03.07-.06.1-.1.04-.04.09-.06.14-.08.06-.02.13-.04.16-.1.05-.1-.06-.13-.11-.19-.03-.04-.03-.12-.06-.15-.09-.1-.33-.06-.45-.03Z"/>
          <path class="cls-1" d="m717.09,175.5s-.02.05-.02.08c0,.07.06.12.11.16.05.04.11.08.17.08.03,0,.06,0,.08,0,.03.01.05.04.08.05.05.03.12,0,.15-.06.03-.05.03-.11.04-.18,0-.06,0-.12.03-.18.08-.15.33-.45-.06-.46-.24,0-.49.29-.58.49Z"/>
          <path class="cls-1" d="m718.12,174.93c-.05.07-.03.17-.07.24-.03.07-.11.11-.11.19,0,.05.04.1.03.16,0,.03-.02.06-.03.09-.01.03,0,.07.02.08.03.02.07,0,.1.01.02,0,.03.03.04.05.06.06.17.03.24.06.03.01.05.03.08.02.02,0,.03-.03.04-.04.04-.03.1-.01.14.02.04.03.08.07.13.08.04,0,.09-.02.12-.04.09-.05.19-.12.18-.23,0-.04-.03-.09-.02-.13,0-.05.04-.08.08-.11.06-.06.12-.13.16-.21,0-.02.02-.03.01-.05,0-.01-.01-.03-.02-.04-.15-.17-.29-.29-.52-.28-.15,0-.5-.03-.6.11Z"/>
          <path class="cls-1" d="m718.39,175.99c-.06.03-.11.07-.18.08-.08.01-.2,0-.23.08-.02.05.01.1.05.12.04.03.09.04.14.04.17.03.42.03.49-.18.06-.2-.11-.23-.27-.14Z"/>
          <path class="cls-1" d="m727.18,173.22c.07,0,.13-.05.18-.09.13-.09.28-.13.43-.18.02-.05.04-.11.03-.16s-.03-.11-.09-.13c-.06-.02-.12.01-.18.04-.14.06-.3.08-.45.07-.11,0-.24-.07-.3.05-.12.24.16.41.36.4Z"/>
          <path class="cls-1" d="m724.54,173.4c-.16.08-.38-.05-.52.06-.03.03-.05.06-.08.1-.03.05-.06.1-.09.14-.02.03-.04.06-.04.09-.02.08.04.17.01.24-.02.08-.13.15-.1.22.17,0,.36,0,.48-.12.12-.11.15-.3.26-.43.06-.07.24-.16.25-.27.01-.14-.1-.1-.19-.05Z"/>
          <path class="cls-1" d="m725.38,171.28s-.07.03-.1.05c-.08.05-.19.08-.28.06-.04,0-.09-.01-.11.02-.02.03,0,.08.04.09.03.02.07.02.11.02.06.01.11.05.17.07s.11.05.17.04c.06-.01.12-.07.11-.13,0-.05-.04-.24-.1-.23Z"/>
          <path class="cls-1" d="m739.24,160.96c.09.05.2.15.15.24-.04.08-.18.08-.23.16-.02.03-.02.08-.03.11-.03.07-.12.09-.19.12-.07.03-.15.09-.12.16.02.06.11.09.12.16,0,.04-.02.08-.04.12-.04.15.16.24.24.37.08.14.05.35.19.43.04.02.09.03.12.06.05.05.04.14.1.18.06.05.14.02.21.05.06.02.09.08.14.12.04.03.09.05.15.07.26.08.52.17.77.25.07.02.14.04.19.09.03.03.06.06.1.08.06.03.14.03.21.02.07,0,.15,0,.21.04.06.04.07.15,0,.18-.02.01-.05.01-.08.01-.18,0-.35-.03-.52-.07-.05-.01-.11-.02-.15,0-.03.02-.05.05-.08.07-.1.06-.2-.1-.32-.11-.07,0-.13.04-.2.03-.1,0-.16-.11-.23-.18-.07-.08-.19-.14-.26-.06-.05.05-.04.14-.1.18-.07.04-.14-.03-.18-.1-.04-.07-.07-.15-.15-.16-.05,0-.09.02-.14.03-.1,0-.19-.08-.28-.05-.04,0-.07.04-.11.05-.08.03-.17,0-.25-.04-.12-.06-.26-.15-.23-.28.05-.04.13,0,.19-.01.11-.03.09-.2,0-.26s-.21-.02-.32,0c-.05-.1-.01-.23.07-.3-.09-.04-.14-.14-.13-.24-.08,0-.16,0-.24.01-.02-.07-.03-.15-.02-.22.07-.02.14-.05.2-.1-.09-.1-.17-.2-.26-.29-.08,0-.17.02-.25-.02-.08-.03-.14-.11-.13-.2.07-.02.15-.03.22-.05.05-.09-.06-.18-.06-.28,0-.07.07-.12.14-.14.07-.01.14,0,.21.03.02-.1.14-.13.24-.11.1.02.19.07.29.06.23-.03.05-.26.17-.36.15-.13.52.08.66.15Z"/>
          <path class="cls-1" d="m739.18,164.54c-.07,0-.08.1-.14.15-.07.06-.19.02-.25.09-.03.04-.02.1.01.14.03.04.07.06.12.09.07.04.15.08.23.09.07,0,.15,0,.22.02.04.01.08.04.12.07.04.02.09.04.13.03.04-.01.08-.07.05-.1.04.07.44-.21.13-.39-.09-.05-.21-.02-.31-.02-.14,0-.21-.13-.31-.14Z"/>
          <path class="cls-1" d="m740.02,159.49c-.08,0-.15.01-.23,0-.06-.02-.12-.05-.17-.08-.1-.04-.22-.06-.33-.07-.15-.01-.31-.03-.46-.04-.05,0-.09,0-.14,0-.1,0-.2.05-.27.13-.1-.1-.23-.17-.37-.21-.27-.08-.56-.06-.82.06-.02,0-.03.02-.04.03-.02.04.03.09.08.1.25.08.52.09.78.1.19,0,.39,0,.58.01.17.04.33.08.5.11.14.03.28.06.42.04.09-.02.17-.06.25-.07.09-.02.19,0,.24.06.02.03.04.06.06.09.09.08.22-.03.34-.07.24-.07.42.2.63.18-.02-.37-.79-.38-1.04-.36Z"/>
          <path class="cls-1" d="m726.4,159.91c-.17-.02-.38-.02-.48.12,0-.07-.1-.11-.14-.06-.01.02-.02.04-.03.06-.04.04-.1,0-.15-.01-.19-.09-.44-.07-.61.07-.01,0-.02.02-.03.03-.01.03,0,.06.04.07s.06.01.09,0c.11,0,.21.01.31.05.02,0,.04.01.04.03,0,.02,0,.03,0,.05,0,.05.07.07.12.07.05,0,.09-.04.14-.05.11-.03.23.02.34.05.14.03.28.02.43,0,.04,0,.09,0,.12-.04.02-.02.03-.04.05-.06.08-.09.5-.04.45-.23-.04-.13-.58-.14-.69-.15Z"/>
          <path class="cls-1" d="m725.79,160.6s-.09-.04-.14-.06c-.07-.03-.14-.06-.21-.08-.15-.06-.32-.12-.47-.07,0-.15-.14-.26-.28-.3-.14-.04-.29-.02-.44,0-.03,0-.05,0-.07.02-.07.06,0,.17.07.23-.02.04-.05.07-.09.07-.1,0-.09-.16-.15-.24-.04-.05-.12-.06-.19-.06-.14,0-.28-.01-.41-.02-.12,0-.24,0-.35.04-.11.05-.19.17-.16.28.1.02.19.03.29.05.04.05-.04.11-.11.1-.06,0-.14-.02-.17.04-.02.05.01.1.06.12.05.02.1.02.15.02.15.01.3.12.35.27.01.03.02.07.04.09.03.03.06.03.1.04.13.02.25.04.38.07.04,0,.08.02.11.04.03.03.05.08.08.11.07.07.2.04.25-.04.06-.08.06-.18.05-.28.09.03.18-.02.25-.08.07-.07.11-.15.18-.21.1-.1.24-.14.38-.16.07,0,.14-.01.19.03.03.03.04.09.07.13.03.04.09.07.12.03.04.04-.02.1-.07.12-.05.02-.11.07-.08.11.02.02.05.02.08.02.12,0,.25-.02.37-.03-.03-.04.04-.09.09-.07.12.06.18.13.33.08.11-.04.14-.03.09-.14-.08-.17-.52-.24-.68-.3Z"/>
          <path class="cls-1" d="m704.2,166.51c-.16-.07-.33-.16-.5-.11-.08.02-.15.08-.22.11-.18.08-.38.03-.57.03-.19,0-.42.08-.46.27-.01.05,0,.1-.03.14-.06.13-.24.13-.38.13-.14,0-.33.08-.29.22,0,.04.04.07.05.11.08.18-.09.37-.24.5-.16.12-.33.3-.26.49.4-.03.76.25,1.16.25.42,0,.78-.3,1.2-.38.45-.09.99.08,1.34-.21.1-.09.18-.2.29-.28.14-.09.31-.11.47-.15.35-.11,1.54-.95.66-1.13-.32-.07-.63.09-.94.15-.42.09-.87.05-1.27-.12Z"/>
          <path class="cls-1" d="m708.39,172.34c-.42,0-.7,0-1.12,0-.08,0-.17,0-.25.05-.08.05-.13.15-.19.23-.05.07-.12.13-.19.19-.28.23-.55.46-.83.7.05-.14.02-.31-.08-.42-.17.08-.36.2-.35.38,0,.08.04.15.06.22.05.17,0,.36-.13.48.16-.02.33.04.44.15-.1.02-.2.05-.27.11-.07.07-.1.19-.04.26.12.14.43,0,.49.17-.27.26-.59.47-.94.62.01.21.05.47.25.55.09.04.19.02.29,0,.25-.05.49-.12.73-.22.03.11-.07.22-.18.26-.11.04-.23.05-.34.1-.1.05-.18.19-.12.29-.06.04-.12.09-.18.13.09.04.18.08.27.11-.04.18-.26.29-.43.22.02.13-.11.26-.24.28-.13.02-.27-.03-.39-.08-.06-.01-.11.07-.09.13.01.06.06.11.09.17.07.13.03.31-.05.43-.09.12-.21.21-.34.3-.12.09-.25.17-.4.21-.08.02-.18.03-.25.08-.14.09-.16.3-.16.47.03.06.12.04.17,0,.05-.04.1-.1.17-.1.1,0,.13.13.13.23.26-.21.64-.12.96,0,.02.07.04.14.06.2-.29,0-.58.02-.87.03-.07,0-.14,0-.2.03-.11.04-.19.13-.27.22-.29.3-.68.5-1.09.61-.11.03-.23.06-.3.15-.07.09-.06.25.05.28.04.01.09,0,.14-.02.27-.08.53-.16.8-.24.07-.02.15-.04.22-.02.07.03.12.1.18.14.13.07.29-.03.38-.14.09-.11.16-.25.28-.33.27-.17.61.04.93.04.15,0,.3-.05.45-.07.33-.04.66.07.99.09.2.01.4-.01.59-.03.05,0,.09-.01.14-.02.06,0,.12-.01.19-.03.25-.05.47-.17.69-.28.11-.06.22-.12.33-.18.03-.02.07-.04.08-.07.04-.1-.11-.17-.21-.15-.11.01-.25.04-.29-.06.07-.08.17-.14.28-.15.02-.05-.02-.11-.07-.13.34-.03.65-.19.89-.43.17-.17.31-.42.2-.63-.08-.14-.26-.22-.42-.22-.17,0-.32.07-.47.15-.14.08-.37.15-.43,0,.11-.08.22-.16.27-.28.05-.12,0-.29-.13-.32.08-.09.16-.17.25-.26-.09.01-.13-.13-.1-.22.03-.09.08-.2.03-.27-.02-.03-.06-.05-.09-.07-.18-.1-.39-.21-.44-.41-.06-.21.06-.42.04-.64-.02-.23-.21-.42-.43-.51-.22-.09-.46-.09-.69-.1.15-.09.33-.12.5-.17.56-.16,1-.56,1.43-.95.07-.06-.03-.17-.11-.2-.47-.17-1-.18-1.47-.03.06-.08.16-.14.26-.16,0-.06.02-.12.03-.18.29,0,.58-.09.83-.24.08-.05.16-.11.18-.2.02-.09-.03-.19-.11-.23Z"/>
          <path class="cls-1" d="m703.56,175.2c-.35.06-.67.24-.99.41-.08.04-.16.09-.19.17-.02.06-.01.12-.02.18-.02.18-.18.32-.36.38-.17.07-.36.08-.53.14-.43.14-.73.5-1.02.85-.18.22-.35.43-.53.65-.17.21-.35.43-.48.67.58.15,1.24.16,1.73-.18.18-.12.35-.29.56-.26.12.02.23.1.35.08.11-.02.19-.14.29-.19.08-.04.17-.03.26-.04.25-.03.47-.18.68-.32.11-.08.24-.16.29-.29.03-.07.03-.15.03-.22,0-.17.01-.33.02-.5,0-.07,0-.14.05-.2.05-.06.12-.08.2-.1.34-.11.76-.49.63-.9-.12-.36-.69-.38-.99-.32Z"/>
          <path class="cls-1" d="m706.13,172.69c-.05.04-.12.06-.17.1-.06.05-.11.12-.19.14-.03,0-.06.01-.09.01h-.22c-.05.01-.12.01-.15-.04-.03-.05.02-.11.07-.13.05-.02.11-.02.16-.03.06-.01.11-.04.17-.07.1-.05.19-.1.29-.16.16-.1.26.05.12.17Z"/>
          <path class="cls-1" d="m705.07,174.85s-.07.06-.07.1c0,.01,0,.03,0,.04,0,.06-.08.09-.08.15,0,0,0,.01,0,.02,0,0,0,0,.02,0,.1.01.18-.08.27-.11.04-.02.09-.02.13-.05.11-.06.14-.24.02-.31-.1-.06-.22.1-.31.16Z"/>
          <path class="cls-1" d="m704.66,174.71s-.09.05-.11.09,0,.1.04.12c.02,0,.05,0,.07,0,.04,0,.08-.02.13-.03.03,0,.06-.01.08-.03.04-.03.05-.08.08-.11.02-.02.04-.04.07-.05.07-.05.27-.24.06-.19-.07.02-.1.07-.16.1-.07.04-.16.06-.24.1Z"/>
          <path class="cls-1" d="m708.6,172.05s-.05.01-.07.03c-.02.02-.03.04-.02.07.05.03.12.05.18.04.02,0,.05,0,.07,0,.02,0,.03.02.04.03.04.03.1.03.15,0,.11-.06.1-.2-.02-.24-.1-.03-.24.04-.33.07Z"/>
          <path class="cls-1" d="m794.83,227.65c-.02.36-.04.71-.07,1.07,0,.14-.02.28.02.41.03.09.07.17.07.26,0,.17-.14.32-.11.48.02.11.13.2.13.31,0,.04-.01.09-.01.13,0,.08.03.16.08.22.03.03.08.06.1.1.05.09-.02.19-.04.29-.02.18.14.34.14.52,0,.1-.07.21-.02.31.02.04.06.07.08.11.11.15.06.36.12.54.04.11.11.21.19.3.04.05.09.1.16.09.04,0,.08-.04.1-.07.28-.29.41-.69.46-1.09.04-.4,0-.8-.05-1.2,0-.08-.02-.16-.06-.23-.05-.09-.14-.16-.15-.26,0-.06,0-.12-.01-.17-.02-.04-.05-.07-.08-.11-.09-.13-.05-.31-.07-.48-.03-.23-.2-.4-.3-.61-.05-.1-.08-.21-.12-.31-.07-.18-.17-.35-.28-.49-.06-.08-.27-.38-.28-.12Z"/>
          <path class="cls-1" d="m801.83,232.18c-.04-.19-.08-.38-.12-.57-.02-.11-.05-.23-.05-.34,0-.12.01-.25.03-.37.03-.34,0-.69-.09-1.02-.02.13-.09.25-.2.33-.04-.21-.1-.45-.28-.58.04.29.04.58.02.87,0,.07-.01.14,0,.21.02.06.06.11.08.17.08.18,0,.39.01.59.02.2.14.39.19.59.03.15.02.3.02.45.02.32.15.64.11.96-.01.08-.03.16-.03.25,0,.09.02.17.05.26.21.78.28,1.59.21,2.39,0,.12-.02.24,0,.35.04-1.02.07-2.03.07-3.06,0-.5,0-.99-.02-1.48Z"/>
          <path class="cls-1" d="m770.86,227.82c-.09.05-.18.13-.16.23.02.07.1.1.17.1.07,0,.14-.01.21,0,.14.02.25.13.39.17.36.1.67-.3.3-.52-.23-.13-.7-.1-.91.02Z"/>
          <path class="cls-1" d="m801.28,224.32c-.16-.81-.26-1.64-.36-2.46-.02-.15-.04-.3-.05-.46-4.89-30.3-27.59-54.63-57.02-61.9-.08.11-.17.23-.26.34-.06.07-.12.15-.21.19-.09.04-.19.05-.28.06-.24,0-.48-.04-.71-.12.32.3.89.17,1.22.46.23.2.31.57.6.66.07.02.15.03.2.08.05.06.04.16.1.22.04.03.09.04.14.05.17.03.34.05.51.08.17.03.38.09.42.26-.19-.05-.41.08-.47.26.3.08.6.17.9.25.11.03.22.06.33.09.79.22,1.59.45,2.36.74.5.19,1,.41,1.5.59-.51-.04-1.01-.2-1.45-.47-.06-.04-.11-.07-.18-.09-.07-.02-.15-.02-.23-.03-.13-.02-.25-.06-.38-.11-.57-.2-1.17-.36-1.77-.46-.07-.01-.14-.02-.21,0-.07.03-.12.1-.09.17.36.28.88.2,1.33.3-.34.23-.8.06-1.17-.11-.26-.12-.53-.24-.79-.36-.07-.03-.18-.05-.21.02.29.23.62.38.94.54.23.11.47.23.7.34.17.08.34.16.51.24.35.17.69.33,1.04.5.06.03.13.06.2.07.09,0,.17-.03.26-.05.37-.1.77,0,1.12.14.38.16.73.37,1.05.62-.5-.27-1.03-.5-1.57-.67-.08-.02-.16-.05-.24-.03-.08.02-.15.08-.15.16,0,.1.12.15.21.18.53.19,1.03.5,1.44.88.05.05.11.1.13.18.02.07,0,.16-.08.18.06.04.11.07.17.11-.45.04-.9.01-1.34-.1.27,0,.54-.02.81-.03.03-.06,0-.14-.06-.17-.06-.03-.13-.03-.2-.03-.07-.22-.23-.42-.43-.54-.11-.06-.23-.11-.33-.17-.22-.15-.41-.39-.68-.42-.34-.04-.66-.19-.97-.33-.29-.13-.58-.27-.84-.44-.05-.03-.11-.07-.16-.1-.05-.03-.11-.06-.17-.09-.39-.19-.81-.33-1.23-.43-.35-.48-.99-.66-1.58-.69-.06,0-.13-.01-.15-.06-.01-.03-.01-.07-.03-.09-.02-.03-.07-.04-.11-.04-.2,0-.39,0-.59,0,0,.11.13.16.23.16.11,0,.23,0,.29.08.02.03.04.07.06.1.04.06.1.09.15.12.21.11.43.23.64.34.06.03.12.06.14.12.02.04.01.1.02.14.02.14.15.23.28.27.13.04.27.04.41.06.24.05.46.21.58.43.03.05.05.1.1.13.08.04.22.02.23.12.17-.1.39-.03.57.06.18.09.37.2.57.16.05-.01.11-.03.16-.02.05.01.09.05.12.08.16.17.32.34.49.51-.23.04-.41-.18-.61-.29-.13-.07-.28-.11-.42-.13-.31-.06-.62-.1-.93-.15-.65-.09-1.3-.18-1.95-.28-.08-.01-.16-.02-.23,0-.07.03-.13.12-.09.19.03.06.1.08.17.1.23.05.46.1.69.15-.01.06-.02.12-.04.17-.08-.02-.17.02-.21.08.07.06.14.11.21.17-.03.08-.14.04-.21,0-.27-.18-.59-.39-.89-.27-.02.15-.2.23-.36.24-.16,0-.32-.03-.46.03.06.04.05.13,0,.18-.05.04-.13.05-.2.03.06.08,0,.2-.09.27-.08.06-.19.1-.24.19-.03-.12.04-.26.15-.3,0-.06-.02-.12-.03-.18-.08,0-.16.03-.21.08-.05,0-.05-.08-.02-.12.03-.04.08-.08.06-.13-.01-.03-.05-.04-.09-.06-.1-.04-.16-.16-.15-.26-.15.07-.29.14-.44.21-.01.06.08.12.13.08.04.03,0,.1-.04.11-.05.01-.1-.01-.14-.03-.25-.09-.55.07-.63.32-.17.02-.34.07-.5.14,0,.05,0,.11.01.16-.09,0-.18,0-.27,0,.09.14.17.28.26.42-.13.02-.24-.02-.35.05-.14.09-.33.06-.48,0-.15-.07-.3-.16-.46-.2-.09-.02-.23-.08-.19-.17.02-.04.07-.05.11-.06.15-.03.3-.06.45-.09-.23-.25-.56-.39-.89-.45-.33-.05-.68-.03-1.01-.01,0,.16.23.18.37.24.35.15.39.72.76.8.08.02.16,0,.22.05.13.1.07.34.2.44-.36-.18-.8-.21-1.18-.08-.05.02-.09.03-.12.07-.04.05-.04.12-.09.16-.09.08-.27.01-.33.12-.03.05,0,.12-.05.15-.04.03-.1.02-.14.04-.06.03-.06.13-.01.18.05.05.12.08.18.1.16.06.3.16.42.28-.12.04-.26.04-.39.02-.35-.03-.71-.08-1.06-.14-.27-.05-.56-.1-.8.01-.06.03-.12.09-.1.15.02.04.06.05.1.06.29.08.58.16.88.23.07.02.15.04.2.09.05.05.07.15.01.2-.4,0-.78-.11-1.16-.22-.21-.06-.41-.12-.6-.22-.25-.13-.45-.32-.66-.51.08-.2-.1-.42-.3-.5-.2-.09-.42-.1-.61-.19-.21-.11-.4-.32-.64-.31.03-.08.14-.07.22-.04.7.21,1.43.33,2.17.36.09,0,.18,0,.27.02.08.01.15.04.22.06.47.12.99.07,1.42-.16.15-.08.31-.22.26-.38-.04-.15-.23-.19-.35-.29-.07-.06-.13-.15-.2-.21-.08-.06-.18-.09-.28-.11-.27-.06-.54-.13-.81-.19-.44-.1-.88-.21-1.3-.38-.12-.05-.23-.1-.36-.13-.14-.03-.28-.02-.42-.02-.54,0-1.07-.04-1.6-.14.05-.05.03-.15-.03-.19-.06-.04-.14-.04-.21-.04-.12,0-.26,0-.35.08-.03.03-.06.06-.1.07-.03.01-.07,0-.1,0-.25-.03-.49-.05-.74-.08-.02,0-.05,0-.07-.02-.09-.06.04-.2.14-.2.11,0,.25.02.3-.08.03-.07-.02-.15-.09-.18-.07-.03-.15-.03-.22-.02-.1,0-.2.01-.3.02-.09-.18-.4-.2-.5-.02-.09.04-.21,0-.27-.08.06-.07.14-.11.23-.13-.18-.13-.43-.07-.61.07.04.14-.15.27-.27.2.03-.13-.19-.14-.28-.05-.09.09-.16.24-.29.24.05-.14.11-.28.16-.43-.25-.02-.51.07-.69.25-.05-.04-.11-.08-.16-.12-.03.07-.08.13-.15.16-.02-.15-.26-.21-.35-.09.12.07.24.15.35.22-.34.1-.7.11-1.05.01-.01.06-.02.12-.03.18-.15.01-.29.12-.35.26-.02-.09-.04-.17-.06-.26-.13.03-.25.1-.33.21-.1-.04-.17-.16-.13-.26-.08-.08-.23-.06-.28.03-.06.09,0,.23.1.27-.06.03-.13.04-.2.03,0-.12-.16-.21-.26-.14.06.07.12.15.17.22-.23-.14-.55-.11-.74.07.09.02.17.05.26.07-.1.16-.29.26-.48.23-.19-.03-.35-.17-.4-.36-.12.05-.22.15-.28.27-.12-.02-.25-.02-.37.02.05.06.1.11.15.17-.28,0-.55.1-.76.28.48-.1.96-.17,1.45-.2.06.03.04.13-.02.16-.06.03-.13.03-.19.03-.24,0-.48.1-.65.26.11.05.22.1.32.15-.16.08-.34.11-.51.08-.42.2-.8.5-1.1.86-.06.07-.13.15-.22.15-.08,0-.14-.07-.21-.1-.18-.08-.41.09-.39.29,0,.07.04.13.02.2-.01.03-.04.06-.06.09-.23.24-.48.49-.79.6-.17.06-.35.07-.51.15-.16.08-.3.25-.26.42-.37-.24-.85.05-1.19.33-.22-.07-.47-.05-.68.07.02.11.05.21.07.32-.25-.16-.57-.06-.85.06-.17.07-.35.16-.4.33-.02.08,0,.18-.07.23-.09.08-.26,0-.33.1-.06.07,0,.17.01.26.05.27-.27.46-.53.55,0,.17,0,.34,0,.51.13-.1.3-.14.46-.1-.05.15-.25.17-.41.22-.15.04-.3.25-.18.35.1-.05.22-.08.34-.06-.14.01-.17.26-.04.3-.19,0-.38.09-.5.23.59.52,1.49.66,2.21.35.22-.1.49-.17.68-.32.38-.3.9-.43,1.37-.33-.13.46-.03.95.17,1.38.2.43.51.8.81,1.16.08.09.16.18.27.23.15.07.34.05.51.03.43-.05.85-.11,1.28-.16.1-.01.21-.03.29-.08.1-.06.15-.17.21-.28.23-.45.46-.9.7-1.35.09-.17.15-.45-.04-.52.3.06.63-.08.79-.35.07.03.14.06.2.09.11-.14.28-.23.46-.24-.11-.13-.03-.36.13-.4-.1-.21-.22-.4-.38-.57-.04.1-.19.02-.26-.05-.08-.07-.24-.11-.25,0-.05-.13-.19-.22-.33-.21.04-.18.09-.36.13-.54.08-.07.14-.15.18-.24-.04-.05-.08-.09-.11-.14-.02-.15.09-.29.22-.36.13-.07.28-.11.42-.17.25-.13.43-.36.67-.51.17-.1.36-.15.54-.22.58-.21,1.11-.59,1.49-1.08.06-.08.12-.16.21-.21.08-.05.18-.07.28-.08.43-.07.93-.11,1.24.2-.58.39-1.16.79-1.74,1.18-.22.15-.44.3-.67.44-.16.04-.19.26-.12.4.07.14.2.25.26.4.11.28-.08.58-.16.87-.01.05-.03.1-.01.15.07.3.66.02.81.29.05.09.03.23.11.29.04.03.09.04.14.04.54.05,1.1-.02,1.62-.18.14-.05.28-.1.43-.13.11-.02.22-.04.33-.05.47-.05.94-.11,1.41-.16.21-.02.53.06.48.26.35-.03.7,0,1.04.11.01.15-.22.14-.37.11-.47-.08-.87.36-1.34.4-.16.01-.32-.02-.48-.04-.81-.12-1.66,0-2.41.32-.07.22.02.49.21.62.16.11.39.14.49.31.06.1.05.22.04.33-.02.22-.06.48-.25.59-.18.1-.4.02-.56-.09-.16-.12-.3-.27-.49-.36-.31-.14-.71-.03-.9.25-.11.15-.17.36-.34.44-.19.2-.07.54.06.79.13.25.25.59.05.78-.23.23-.64.03-.93.16.12,0,.09.2,0,.29-.36.32-.97.3-1.3-.05-.07-.07-.13-.16-.22-.2-.08-.04-.17-.04-.26-.03-.44.04-.84.23-1.25.38-.52.19-1.05.31-1.6.37-.32.04-.66,0-.91-.2,0-.1.05-.2.12-.28-.23-.11-.53-.05-.69.15-.29-.11-.66.05-.76.35-.29.05-.59.03-.87-.05.02-.12.07-.24.15-.34-.31.02-.62-.05-.89-.2.07-.19-.13-.38-.12-.58.01-.27.36-.37.53-.59.03-.04.06-.09.09-.13.06-.07.13-.12.2-.17.25-.21.4-.54.39-.87,0-.07-.01-.14.01-.2.04-.11.19-.2.14-.32-.47-.13-.87.51-1.35.46-.01.06-.02.13-.03.19-.07-.01-.13-.06-.15-.13-.17.03-.33.13-.43.27.08.07.23.04.28-.05.03.04.04.1.02.15-.1.14-.32.19-.47.1.01.1-.16.14-.17.24-.01.06.04.12.06.18.03.11-.04.22-.07.32-.04.11.01.27.12.26.01.14.07.27.17.37-.18.12-.27.38-.19.58.02.05.05.1.05.16,0,.05-.03.1-.04.15s0,.12.06.13c-.02.1-.11.17-.21.19s-.2,0-.3,0c.02.13.01.26-.03.39-.22.03-.45-.1-.54-.3-.2,0-.4,0-.59,0-.04,0-.09,0-.12.04-.03.04,0,.11-.02.16-.02.04-.06.06-.1.07-.16.05-.33.07-.5.04-.1-.01-.19-.04-.29-.04-.14,0-.28.05-.41.1-.07.03-.14.05-.19.11-.05.05-.07.14-.03.2.1,0,.19.04.25.12-.13.16-.33.27-.54.3.1-.21-.04-.49-.27-.53-.03,0-.06,0-.08.01-.03.02-.03.06-.03.1,0,.2.01.48-.17.56-.19.07-.38.15-.51.31-.06.07-.11.16-.19.19-.06.02-.13,0-.2.03-.09.03-.15.11-.21.18-.27.3-.7.37-1.1.44-.4.07-.83.2-1.03.55-.05.09-.08.19-.14.28-.34.53-1.34.3-1.61.87-.29,0-.58,0-.87.01-.06,0-.12,0-.16-.04-.04-.03-.05-.09-.07-.13-.09-.16-.33-.14-.51-.1-.12.15.16.34.15.53,0,.19-.28.28-.29.47-.26-.11-.54.15-.82.09-.21-.04-.33-.25-.44-.44-.35.19-.76.26-1.16.2-.08-.01-.17-.03-.25-.02-.08.02-.16.08-.16.17,0,.1.11.17.11.27,0,.1-.09.17-.17.23-.07.07-.13.19-.05.26.58,0,1.16.25,1.55.67.04.04.08.09.09.15.02.12-.08.23-.06.34.01.08.07.14.13.2.15.15.31.29.46.44.03.03.06.05.07.09.03.08-.02.16-.06.23-.07.18-.03.4.11.54-.09.03-.19-.02-.24-.09-.08.17-.07.38.05.53-.14-.05-.26.08-.35.2-.17.23-.34.47-.43.74-.04.11-.07.23-.16.31-.07.05-.16.07-.23.12s-.15.26-.08.31c.06.03.05.12,0,.17-.05.05-.11.06-.18.07-.38.06-.76.03-1.13-.06-.06-.01-.11-.03-.17-.06-.05-.03-.09-.07-.14-.09-.11-.05-.23-.02-.34,0-.41.07-.83.02-1.25-.03-.27-.03-.55-.06-.82-.1-.09-.01-.18-.02-.27-.03-.33-.04-.65-.08-.97-.17-.1-.03-.19-.06-.29-.1-.06-.02-.12-.05-.18-.06-.26-.03-.45.25-.69.36-.19.09-.41.06-.62.08s-.45.14-.47.35c-.01.12.05.24.07.36.08.47-.5.86-.43,1.34,0,.07.03.14.03.22,0,.18-.16.32-.21.48-.03.1-.03.21-.07.3-.08.2-.29.3-.49.39,0,.21-.06.43-.21.59-.05.05-.12.1-.18.15-.23.17-.44.38-.61.62-.07.09-.13.19-.16.29-.06.23.06.47.1.7.05.33-.06.66-.14.98-.06.23-.1.46-.13.69.26-.15.56.11.85.15.41.05.81-.34,1.2-.21.04.16.12.31.24.43-.04.06-.08.12-.12.18.08.06.16.11.24.17-.16.17-.09.44,0,.66.37.1.79,0,1.08-.25.06-.06.12-.12.2-.16.12-.06.26-.04.39-.08.13-.04.25-.18.18-.29.07,0,.15,0,.22-.01.02.07.04.14.05.22.68-.07,1.37-.05,2.04.08.57-.28.94-1,1.57-1.01.12,0,.25.02.35-.04.06-.04.1-.09.14-.15.09-.13.18-.26.27-.39.21-.31.5-.67.87-.64.08-.19-.07-.4-.12-.6-.07-.31.13-.61.32-.87.05-.07.1-.14.15-.2.47-.11.65-.72,1.1-.91.1-.04.22-.07.27-.17.02-.05.02-.11.04-.15.07-.16.3-.14.47-.09-.01-.15.18-.22.33-.25.17-.03.34-.06.5-.08.09-.01.18-.03.26-.08.06-.04.1-.1.16-.15.28-.24.82-.11.99-.45.07-.15.03-.33,0-.49-.04-.21-.04-.44.05-.64.08-.2.26-.37.48-.4.08-.01.17,0,.24-.04.07-.04.11-.11.17-.16.12-.11.32-.13.48-.07.16.05.3.16.43.26.27-.06.6-.1.79.1.05.06.09.13.16.17.05.03.12.03.18.04.28.01.58.03.86.04.13-.11.25-.22.38-.33.17-.15.34-.29.51-.44.03-.03.07-.06.11-.08.09-.05.21-.03.31-.05.23-.03.42-.21.61-.35.19-.14.43-.26.65-.18.08.03.15.09.23.1.06,0,.13,0,.18.02.05.02.09.06.14.1.17.13.42.11.6.24.14.1.2.27.26.44.02.07.05.14.05.22,0,.1-.05.2-.02.3.02.08.09.13.12.2.03.05.04.11.05.16.05.16.19.3.35.35.06.02.12.03.18.06.06.03.11.08.15.12.11.12.24.28.36.39.23.19.47.39.7.58.05.04.11.09.18.1.05,0,.1-.01.15,0,.12.02.16.16.26.22.11.07.24.02.37.04.39.03.53.52.82.79.1.09.23.16.35.23.29.16.58.31.87.47.09.05.18.1.25.18.06.07.09.15.12.23.06.15.12.31.17.47.05.15.09.31.09.46-.01.47-.23.79-.34,1.22.1.03.05.21.08.31.27-.14.52-.31.76-.5.1-.08.19-.16.24-.28.04-.12.03-.27.13-.36.09-.08.23-.06.34-.11.14-.06.2-.23.17-.38s-.11-.28-.21-.39c-.08-.1-.1-.33-.14-.45-.08-.26.03-.39.21-.6.03-.04.07-.08.12-.11.07-.03.16-.02.23,0,.31.08.6.22.87.41.13.09.3.2.44.12.1-.06.12-.21.07-.32-.05-.11-.15-.19-.24-.26-.18-.14-.35-.28-.53-.42-.09-.07-.18-.14-.28-.21-.45-.29-1-.37-1.53-.43-.08,0-.16-.03-.2-.09.23-.07.27-.41.12-.59-.16-.18-.43-.21-.66-.17-.17.03-.36.08-.48-.04-.03-.03-.06-.08-.09-.11-.05-.05-.11-.08-.17-.11-.26-.12-.52-.23-.79-.35,0-.15,0-.3,0-.45,0-.05,0-.1-.04-.13-.03-.03-.07-.03-.11-.04-.26-.1-.07-.59-.31-.74-.05-.03-.12-.04-.18-.05-.27-.05-.51-.23-.64-.47-.1-.19-.14-.4-.18-.61-.05-.26-.08-.55.09-.75.12-.14.32-.19.5-.23.15-.03.3-.07.46-.1.05-.01.11-.02.16,0,.04.02.06.07.08.11.11.24.22.47.33.71.19-.04.27-.27.43-.38.24-.17.63.03.64.32,0,.15-.08.31-.02.45.07.17.32.23.34.41,0,.05-.01.11,0,.17.02.16.22.21.37.27.19.07.35.22.45.4.25-.03.5.02.71.16.06.04.12.09.19.11.06.02.13.02.18.05.06.04.07.12.11.18.12.22.45.24.61.44.25.08.48.21.68.37.21.17.4.37.65.48.17.07.37.09.52.21.15.12.18.4,0,.46-.04.01-.08.02-.11.04-.04.03-.04.08-.04.13,0,.18,0,.35,0,.53,0,.33-.05.66-.01.99.04.33.18.67.47.83.24.14.56.12.78.29.13.1.22.25.3.4.3.55.6,1.1.91,1.66.2.37.41.75.51,1.17,0-.2.24-.35.43-.28.19.07.27.32.19.5.26-.02.47-.32.38-.57.09.23.34.38.58.36-.2-.34-.27-.75-.18-1.14.2.14.5.08.64-.11-.2-.17-.33-.42-.37-.68.25.2.59.29.9.21-.2-.29-.25-.68-.14-1.01-.13-.36-.4-.67-.73-.85-.08-.05-.18-.09-.22-.17-.1-.22.21-.43.18-.67-.01-.12-.12-.23-.1-.35.04-.25.44-.13.68-.22.17-.07.25-.27.4-.37.17-.11.38-.09.58-.07.35.04.71.09,1.06.13.18.02.36.04.48.17-.04.05,0,.11.07.12.06,0,.12-.02.18-.04.19-.07.39-.05.59-.07.2-.02.41-.12.48-.3.02-.07.02-.14.07-.2.03-.03.06-.05.1-.07.29-.13.63-.14.93-.03.08.03.15.07.24.07.08,0,.17-.03.21-.1.06-.14-.12-.27-.27-.28-.15-.01-.33.02-.44-.08-.09-.08-.17-.25-.28-.2-.03-.22-.1-.44-.21-.64-.03-.06-.07-.11-.12-.15-.09-.07-.24-.13-.23-.24.01-.16.31-.16.32-.32,0-.04-.01-.07-.02-.11-.07-.18-.11-.4.03-.53.12-.1.31-.08.43-.18.24-.21-.06-.65.14-.9.03-.04.08-.08.1-.14.02-.07-.03-.14-.03-.21,0-.1.07-.19.16-.23.09-.04.19-.05.29-.06.06,0,.12,0,.18-.01.02,0,.05,0,.07-.01.06-.03.06-.12.04-.19-.02-.07-.06-.13-.04-.2.02-.08.12-.12.14-.2.05-.17-.26-.28-.22-.44.03-.11.17-.13.29-.16.36-.08.62-.49.53-.85.15.03.31,0,.44-.07.03-.02.06-.04.1-.03.05,0,.08.05.13.08.06.03.13.03.2.02.23-.02.46-.04.69-.05-.08.12-.16.25-.25.37.15.01.33,0,.48.02-.05.01.64.14.59.15.3.02.6.1.88.22-.18,0-.36.07-.48.2-.04.04-.07.09-.12.12-.09.04-.19.01-.28.05-.1.04-.16.16-.12.26.21-.05.43.05.63.14.3.15.62.33.71.64.02.08.03.17.07.25.04.08.12.15.2.13.04,0,.07-.03.1-.05.21-.15.42-.29.64-.44.03-.02.06-.04.09-.06.17-.12.34-.23.46-.4.02-.02.03-.04.05-.05.06-.04.13,0,.2.04.24.12.53.06.79,0,.11-.12.02-.33-.13-.41-.15-.07-.32-.05-.49-.02-.06,0-.12.02-.17.05-.04.03-.08.07-.12.1-.18.12-.41-.07-.57-.22-.19-.18-.43-.31-.68-.39-.02-.19.18-.33.34-.43.35-.2.7-.4,1.1-.46.07-.01.14-.02.21-.05.05-.03.08-.07.13-.1.14-.09.35-.04.48-.14.07-.05.1-.13.17-.18.16-.12.38-.04.58-.02.42.03.85-.3,1.23-.13-.06.25-.36.33-.6.38-.25.05-.54.17-.56.43.14.08.29.16.43.24.07.04.15.13.09.19-.1,0-.2-.01-.3-.02.07.11.03.25,0,.37-.03.08-.05.17-.11.23-.15.17-.42.13-.64.07-.02.15.1.29.21.39.18.16.35.33.53.49.04.04.09.08.14.09.06.01.13,0,.19-.01.15,0,.29.12.3.27.14,0,.27-.01.41-.02.04.17.27.17.44.19.28.03.52.21.75.37.35.26.69.52,1.04.78.06.05.13.1.21.11.06.01.11,0,.17,0,.3.02.52.35.82.32.16.18.32.35.47.53.05.05.09.11.14.16.04.05.08.1.11.15.08.18-.02.39-.14.54-.17.22-.38.41-.62.56-.07-.04-.15-.04-.22-.01.05.06,0,.16-.06.21-.07.05-.15.05-.23.06-.16.01-.33.03-.48-.04-.04-.02-.08-.05-.12-.06-.06-.02-.13-.02-.2-.02-.57,0-1.13,0-1.7,0-.19,0-.39,0-.54-.11-.07-.05-.14-.13-.23-.15-.05-.01-.11,0-.16,0-.32.04-.65-.03-.92-.2-.14-.09-.27-.2-.43-.23-.15-.02-.3.01-.44.07-.13-.11-.26-.22-.39-.33-.05-.04-.1-.08-.16-.08-.04,0-.07.02-.1.04-.3.17-.67.14-1.02.14-.5,0-1,.08-1.49.23-.05.02-.1.03-.15.05-.06.03-.12.08-.18.12-.14.1-.28.2-.42.31-.04.03-.08.06-.12.08-.17.12-.35.25-.55.24-.2,0-.37-.13-.56-.16-.32-.06-.64.12-.96.09-.1-.01-.2-.04-.3-.05-.1,0-.21.01-.27.09s-.06.22.04.26c.09.04.21-.02.28.05,0,.36-.31.68-.67.7-.14,0-.28-.03-.42-.05-.35-.06-.71-.05-1.06.01-.13.03-.26.06-.39.04-.11-.02-.22-.09-.33-.1-.16-.02-.32.08-.38.23,0,.09,0,.16-.02.25-.09.49-.19.97-.28,1.46.04.15.3.1.36-.04.06-.15,0-.31-.01-.47-.02-.16.04-.35.19-.38.19-.04.3.19.36.37.05.18.11.37.16.55.1.26-.14.57-.41.55-.14.11-.03.36.13.43.17.07.35.03.53.04s.39.09.42.27c.02.1-.02.19-.03.29-.03.25.21.5.47.49-.14.16-.13.43.02.58.22-.19.5-.33.8-.38-.09.09-.18.17-.27.26.2.07.64.03.83.11.29.11.33.33.62.44.38.14.79.29,1.18.18.08-.02.16-.06.2-.14.07-.12-.02-.29.04-.42.06-.14.26-.17.41-.16.48.02,1.01-.03,1.43.22.51.3.63.67,1.35.51.51-.11,1.3-.4,1.47-.9.32-.15.74-.08.99.17.06.06.11.13.19.16.25.1.45-.23.51-.49.18-.03.3.21.27.39s-.16.33-.21.51c-.15.52.37,1.01.36,1.56,0,.5-.45.93-.42,1.44.01.21.12.42.1.63-.01.21-.24.43-.42.32.21.32.11.75-.05,1.09-.16.34-.39.67-.44,1.05-.01.08-.01.17-.06.24-.1.18-.37.17-.57.14-.45-.06-1.02-.04-1.25.35-.72-.65-1.78-.91-2.72-.66,0,.07-.02.14-.03.22-.45.01-.88.33-1.01.76-.03-.18-.28-.2-.44-.12-.16.08-.32.21-.49.18-.23-.03-.35-.31-.56-.42-.43-.21-1.05.35-1.35-.02-.08-.1-.1-.26-.21-.34-.08-.06-.19-.07-.29-.07-.79-.02-1.59-.04-2.38-.06.16-.17.03-.47-.18-.57-.21-.1-.46-.06-.69-.03-.23.03-.49.03-.67-.12-.09-.07-.15-.18-.26-.21-.1-.03-.21.01-.32,0-.46,0-.64-.78-1.1-.73-.09.01-.17.05-.26.05-.11,0-.2-.09-.29-.13-.22-.11-.49-.06-.73,0-.36.08-.72.16-1.08.24-.19.04-.38.09-.53.2-.15.12-.25.33-.17.51-.26.36-.39.81-.35,1.26.17,0,.28.2.24.37-.03.17-.16.29-.28.41-.28.27-.71.55-1.03.32-.14.13-.28.26-.42.39-.19-.42-.54-.77-.96-.96-.21-.1-.44-.15-.66-.21l-1.49-.38c-.39-.1-.87-.29-.91-.69,0-.08-.18-.14-.26-.15.15-.11.05-.41-.14-.4.09-.18-.14-.36-.34-.36-.2,0-.4.08-.59.02-.27-.09-.43-.47-.72-.44-.08,0-.16.05-.22,0-.04-.03-.05-.08-.09-.11-.04-.04-.11-.04-.16-.04-.23,0-.46,0-.69-.01-.07,0-.15,0-.21.03-.05.03-.1.07-.15.1-.15.08-.33-.02-.48-.11-.15-.09-.35-.16-.48-.04-.04-.07-.08-.14-.12-.21-.14.1-.33.02-.48-.07-.14-.09-.3-.21-.47-.17.04-.1.16-.15.25-.22s.16-.21.07-.28c-.33,0-.66.01-1,.02-.11-.22-.21-.5-.04-.68.11-.12.31-.14.41-.27.05-.07.07-.17.14-.23.05-.04.12-.04.18-.07.1-.05.16-.15.2-.25.14-.34.19-.73.13-1.1-.22-.01-.34-.25-.42-.46-.05-.14-.1-.29-.05-.43.05-.14.26-.22.35-.1.1-.25.27-.46.44-.66-.28-.1-.62.02-.79.27-.1-.05-.1-.18-.06-.28.04-.1.09-.2.06-.31-.05-.2-.34-.19-.54-.14.05-.08-.08-.17-.17-.14s-.16.11-.25.14c-.07.02-.16,0-.23.03-.07.03-.11.09-.16.14-.28.26-.73-.01-1.1.08-.14.03-.26.12-.4.15s-.32-.02-.35-.16c-.4.1-.85-.09-1.25-.13-.31-.03-.64.05-.89.23-.07.05-.14.1-.21.13-.21.08-.43-.03-.63-.11-.28-.12-.58-.2-.88-.24-.09-.01-.18-.02-.27-.01-.09,0-.17.02-.25.04-.1.02-.21.05-.31.07-.53.12-1.05.24-1.58.33-.23.04-.46.08-.69.02-.18-.04-.39-.13-.51,0-.04.04-.07.11-.12.14-.1.07-.25-.01-.37.03-.1.04-.15.16-.25.19-.06.02-.13,0-.2,0-.22-.02-.45.13-.52.34-.02.05-.03.1-.07.12-.04.02-.1,0-.15-.01-.43-.15-.91.02-1.29.26.11.1-.03.26-.16.32-.39.19-.85.25-1.28.19-.66-.1-1.32-.5-1.94-.25-.14.06-.32.1-.38.25-.14-.08-.19-.25-.26-.4s-.23-.29-.38-.23c.02-.16.04-.31.06-.47-.16.05-.31.1-.47.16-.18.06-.37.13-.45.29-.04.07-.06.16-.11.23-.04.05-.11.08-.15.13-.07.07-.1.17-.13.26-.21.57-.65,1.04-1.2,1.31-.12.06-.24.1-.36.15l-1.31.51c-.06.02-.12.05-.18.08-.06.04-.12.09-.17.14-.12.09-.27.14-.38.24-.07.07-.12.16-.18.25-.22.31-.57.5-.87.74-.18.14-.35.31-.38.53-.02.12,0,.25-.02.37-.07.37-.56.54-.62.91-.02.12,0,.24.08.34.03.05.07.08.1.14.11.25-.26.53-.13.77-.28.03-.53.24-.62.51-.16.5-.98.56-1.35.93-.24.24-.45.6-.78.58-.1,0-.21-.04-.31-.01-.09.03-.15.12-.23.16-.13.07-.29,0-.44-.01-.15-.02-.34.05-.33.2-.09-.03-.18-.07-.26-.1-.18.27-.35.54-.53.81-.32.49-.67,1-1.18,1.3-.05-.1-.19-.12-.28-.07-.1.04-.17.14-.23.23-.48.71-.8,1.56-1.45,2.12-.16.13-.33.25-.47.4-.14.16-.23.34-.33.53-.22.4-.47.78-.73,1.16-.15.23-.3.45-.46.68-.11.16-.22.33-.35.48-.13.15-.27.29-.38.45-.26.39-.3.92-.08,1.34.07.13.16.25.22.38.17.36.14.8-.08,1.13-.08.12-.18.23-.24.36-.13.27-.05.59,0,.89.09.62.01,1.27-.23,1.85-.13.3-.39.62-.52.92-.14.32-.19.68-.19,1.04,0,.13,0,.27-.05.39-.05.12-.15.22-.24.32-.2.22-.37.46-.54.69-.1.15-.21.3-.31.44-.06.09-.13.18-.12.29,0,.09.05.17.09.25.19.32.41.66.36,1.02-.02.11-.06.22-.02.32.07.19.32.2.51.2.2,0,.45.07.45.27-.29-.05-.59-.1-.86,0-.27.11-.47.44-.34.7.38.16.83.31,1.17.08.14.09.1.33-.04.42-.14.1-.32.09-.48.06-.16-.03-.32-.09-.49-.08-.05,0-.11.01-.15.05-.09.09-.02.24.07.32.09.08.21.15.24.27.03.12-.05.26,0,.37.09.16.33.05.46-.07.13-.12.35-.25.47-.11.14.17-.12.46.02.63.04.05.11.08.15.13.08.1.01.24,0,.36-.03.21.08.42.18.6.16.28.32.57.48.85.05.09.1.18.17.24.06.05.13.09.2.13.19.12.36.28.48.47.15.25.23.54.29.82.11.45.22.89.33,1.34.02.09.05.19.06.28.01.08.02.16.03.23.06.33.25.61.44.88.04.05.08.11.13.14.07.05.16.06.24.08.23.07.42.25.5.48-.05-.01-.1-.02-.16-.04.2.18.51.55.72.74.03.03.07.06.1.09.21.19.42.37.63.56.09.08.19.17.28.25.1.09.22.19.36.17.07.43.5.7.74,1.06.06.09.1.18.17.25.05.05.11.09.16.13.16.11.31.21.47.32.14.09.27.19.41.27.22.14.45.28.68.41.08.04.15.09.23.13.06.03.12.07.19.07.18,0,.36-.22.49-.1,0-.15.17-.27.31-.21.04.02.1.05.13.02.03-.02.03-.06.04-.1.04-.12.21-.12.32-.08.12.04.26.09.35,0,.05-.05.06-.12.1-.17.1-.14.32-.12.49-.06.17.06.36.13.51.03.07-.05.12-.13.2-.18.12-.07.27-.03.41,0,.42.09.87.05,1.3.07.43.01.89.08,1.23.36.05.04.11.1.18.1.06,0,.13-.02.19-.04.13-.04.28-.04.42,0,.18.06.33.2.49.3.16.1.38.16.54.06.07-.08.11-.19.1-.29.15.08.19-.11.35-.17.18-.07.4.12.56.01.07-.05.1-.14.18-.17.1-.04.2.05.3.05.15,0,.25-.14.36-.24.11-.1.32-.14.37,0,.04-.1.09-.19.13-.29.35.02.7.04,1.04.06.03-.13.06-.26.09-.39.29.12.57-.2.88-.25.25-.03.58.09.7-.12.03-.05.04-.13.1-.16.04-.03.09-.02.14-.02.81.07,1.62.15,2.42.22.13.01.27.02.4.06.43.11.77.43,1.09.73.19.18.39.39.39.65.25.07.24.42.3.67.05.23.2.42.34.6.17.22.37.45.65.45.1,0,.19-.03.29-.03.09,0,.18.05.27.07.29.09.62.04.87-.14.07-.05.13-.11.21-.14.19-.07.39.02.59.04.38.04.75-.16,1.12-.14.37.02.72.28.84.63.04.1,0,.2.02.3,0,.04.02.08.04.11.08.09.22,0,.33-.01.15-.03.3.08.4.2.1.12.17.27.27.38.12.12.29.21.36.37.03.08.04.17.04.25,0,.24.02.48.02.73,0,.05,0,.11-.04.15-.02.02-.05.03-.08.05-.16.09-.18.32-.16.5.02.19.06.39-.06.54-.05.06-.12.11-.14.19-.01.06.02.12.01.18,0,.12-.12.21-.21.29-.09.08-.16.23-.08.32.03.03.08.05.12.08.14.12.02.34.02.53,0,.15.09.32,0,.43-.05.05-.13.07-.18.12-.05.06-.06.14-.06.22,0,.18,0,.37,0,.55,0,.07,0,.14-.04.2-.06.11-.22.18-.2.31,0,.05.04.09.05.13,0,.08-.07.13-.13.19-.2.18-.2.53,0,.71.04.04.1.07.13.12.05.08.05.18.05.27-.02.31-.02.66.22.86.07.06.15.09.23.14.24.15.4.38.55.61.34.51.8.9,1.23,1.34.21.21.42.42.64.61.31.25.68.53.7.93.35.2.45.65.51,1.04.07-.07.2,0,.24.09.04.09.03.2.07.29.05.13.2.24.15.37-.02.06-.08.1-.11.15-.07.12.03.27.14.36.11.09.24.17.27.31.02.08,0,.17.02.26.06.21.39.24.49.44.07.14,0,.31.03.46.07.3.54.47.46.77-.03.1-.12.2-.07.29.03.06.1.08.14.13.05.07.04.17.03.26-.03.28.1.57.32.74-.16-.1-.39.03-.45.21-.06.18-.01.38.04.56.05.17.09.34.14.51.1.38.24.8.59.98.11.05.25.09.31.19.04.07.04.17.04.25-.01.27-.02.55-.03.82,0,.23-.02.47-.13.67-.14.26-.44.45-.47.74-.45.2-.84.54-1.11.96.14.29-.22.6-.21.92,0,.14.09.28.09.42.02.41-.51.8-.27,1.13-.17.27-.39.62-.56.9-.05.08-.11.17-.12.27-.03.21.13.39.22.59.1.21.12.47.06.69-.17.2-.22.49-.13.74.09.03.18.06.27.09-.05.15.04.31.13.44.15.23.3.46.45.69.17.25.34.52.62.65.07.03.15.06.19.12.06.08.03.19.06.29.03.13.16.23.29.24-.1.22.02.51.24.6.05.02.12.03.15.08.08.11-.06.26-.03.4.01.06.06.1.1.14.14.14.28.28.42.42.19.18.39.42.32.67.3.02.45.38.5.67.05.02.1.04.14.06.14.2.29.39.43.59.03.05.07.09.09.15.02.06.02.12.02.18,0,.57,0,1.13,0,1.7,0,.05,0,.1.02.14.07.14.29.12.39.24.04.05.05.11.06.18.06.39.07.8.01,1.19-.03.19.01.48.2.46.04,0,.07-.02.11-.01.08.01.11.12.11.2.02.28.04.55.06.83.12.1.2.22.32.32.24.2.49.4.73.6.34.27.67.54,1.05.75.13.07.28.15.34.29.05.13.03.3.15.36.05.02.11.02.15.05.07.06,0,.17-.02.26-.07.25.19.45.38.63.18.17.33.38.41.62.03.08.06.17.13.22.1.07.25.04.32.14.03.04.03.09.04.14.03.17.11.33.15.49.05.17.05.36-.07.49-.07.08-.18.12-.27.18-.09.06-.16.18-.11.28.02.04.05.06.09.09.26.2.51.4.77.61-.05.1-.1.24-.02.32.03.03.07.04.11.05.18.06.36.12.54.18.23.08.47.16.64.34.14.14.27.35.47.31.07-.02.13-.07.2-.11.16-.1.37-.12.55-.06.02-.18.22-.3.4-.31.18-.02.37.03.55.03.15,0,.31-.03.46-.06.18-.04.35-.08.53-.11.1-.02.21-.04.3-.09.08-.04.16-.09.25-.12.19-.06.4-.02.61,0,.2.02.44-.02.55-.19.1.21.39.26.63.22.23-.04.48-.12.7-.05.14.04.33.13.41,0,.03-.04.03-.09.06-.13.03-.03.11,0,.08.04.21.07.34-.02.51-.16.07-.06.13-.14.22-.18.1-.04.22-.02.33,0,.44.08.93.09,1.3-.17.14-.1.26-.24.4-.34.21-.15.46-.23.7-.32.69-.25,1.33-.63,1.88-1.12.13-.11.26-.24.42-.31.13-.07.28-.1.41-.17.15-.08.27-.2.38-.33.27-.29.55-.59.82-.88.43-.47.88-.94,1.42-1.28.17-.11.36-.2.52-.33.27-.21.46-.51.64-.8.38-.6.78-1.27.67-1.97-.02-.11-.04-.21-.05-.32,0-.52.58-.82,1.07-.99.55-.19,1.1-.39,1.64-.58.39-.14.82-.31,1.01-.67.16-.31.11-.68.14-1.02.04-.43.22-.84.39-1.23-.11-.02-.21-.04-.32-.06-.12-.04-.14-.21-.09-.33.05-.12.14-.22.15-.35.01-.1-.03-.2-.07-.29-.2-.47-.39-.95-.59-1.42-.07-.17-.05-.32.1-.43.68-.54,1.36-1.07,2.04-1.61.16-.12.31-.25.47-.37.35-.28.7-.56,1.1-.76.18-.09.36-.17.54-.25.3-.13.6-.26.9-.39.37-.16.78-.32,1.16-.2.9-1.14,2.38-1.96,2.66-3.39.14-.74-.07-1.5-.05-2.25.04-1.1.58-2.26.09-3.24-.08-.15-.23-.31-.39-.24.11-.19-.06-.42-.2-.59-.15-.17-.28-.43-.12-.59-.11-.17-.23-.34-.34-.51-.13-.2-.27-.46-.13-.65.05-.08.14-.13.2-.21.2-.32-.36-.66-.31-1.04.03-.32.48-.49.47-.81-.02-.35-.53-.4-.79-.64-.35-.32-.16-.9.06-1.32.41-.81.82-1.63,1.24-2.44-.15-.22.28-.47.47-.66.2-.19.24-.48.27-.75.02-.27.04-.56.2-.78.16-.22.54-.3.7-.08.22-.58.63-1.09,1.14-1.44.22-.15.5-.38.39-.62,1.59-1.95,3.28-3.82,5.06-5.59.38-.38.77-.76,1.13-1.16,1.1-1.24,1.91-2.71,2.71-4.16.09-.16.18-.34.17-.52-.01-.16-.1-.32-.06-.48.04-.17.21-.27.33-.39.3-.31.29-.79.38-1.21.19-.92.91-1.66,1.15-2.57.09-.34.1-.7.12-1.05.04-.8.07-1.6.11-2.4-.26-.23-.73-.44-.91-.13-.04.08-.05.17-.09.24-.07.14-.24.2-.39.24-.47.15-.93.3-1.4.45-.71.22-1.41.45-2.12.67-.26.08-.37.39-.68.39-.29,0-.7-.17-1-.11-.45.09-.77.75-1.16.74-.44,0-.78,0-1.12-.27-.38-.32-.72-.83-1.2-.98-.1-.03-.21-.05-.27-.13-.1-.14.03-.31.12-.46.3-.46.16-1.16-.3-1.46-.34-.23-.62-.6-.95-.84-.07-.05-.15-.11-.22-.16-.34-.25-.7-.52-.88-.9-.03-.07-.05-.13-.09-.19-.15-.24-.51-.34-.55-.62-.1.03-.21.07-.31.1-.11-.18-.23-.36-.41-.45-.19-.09-.45-.05-.54.13.07-.22-.14-.43-.35-.52-.21-.09-.46-.12-.63-.28-.12-.11-.18-.25-.24-.4-.15-.35-.28-.7-.42-1.05-.04-.1-.08-.21-.12-.31-.13-.33-.25-.65-.42-.96-.23-.42-.54-.8-.89-1.12-.25-.22-.53-.42-.82-.58-.13-.07-.26-.13-.36-.24-.11-.11-.18-.25-.24-.39-.3-.69-.46-1.43-.48-2.18,0-.28-.06-.66-.34-.7,0-.17.06-.33.16-.46-.22-.1-.38-.3-.44-.54-.03-.12-.03-.25-.08-.36-.04-.07-.1-.13-.15-.18-.36-.33-.76-.6-1.21-.8-.26-.18-.44-.48-.47-.8-.02-.22,0-.49-.2-.59-.06-.03-.15-.05-.17-.12-.01-.06.04-.11.06-.16.09-.17-.06-.36-.19-.49-.31-.33-.57-.72-.75-1.13-.34-.75-.84-1.41-1.25-2.13-.06-.1-.12-.21-.17-.31-.2-.35-.4-.7-.65-1.02-.22-.28-.49-.53-.72-.81-.32-.39-.58-.82-.76-1.29-.05-.12-.09-.24-.17-.33-.07-.07-.15-.12-.21-.19s-.08-.19-.01-.26c.18-.08.38.07.48.24.1.17.16.37.3.5.08.07.19.12.25.21.07.09.08.21.11.32.12.46.54.77.92,1.04.14.1.3.2.46.17.27-.05.34-.4.34-.67,0-.27.01-.61.26-.73-.05.26-.11.54-.05.8.06.26.27.51.54.53.11,0,.22-.02.31.03.07.04.12.11.16.19.26.45.63.83,1.07,1.12.12.08.24.15.33.26.09.11.13.25.19.39.38.97,1.33,1.67,1.58,2.68.02.09.04.18.09.25.15.21.49.17.68.34.13.12.2.33.38.34.07,0,.15-.03.22-.02.17.03.17.27.24.43.08.17.26.26.4.39.08.07.14.15.2.24.15.21.26.44.33.68.06.19.1.39.13.58.03.15.06.31.09.46.14.62.37,1.21.69,1.75.06.1.12.2.21.27.15.12.35.14.54.18.48.12.91.44,1.16.87.51.9.98,1.92,1.76,2.6.19.16.41.28.6.44.89.75.87,2.1,1.1,3.25.12.61.33,1.19.55,1.78.15.41.3.82.45,1.24.07.2.15.41.3.56.25.24.62.27.96.29-.04-.29.41-.31.69-.41.33-.11.5-.46.74-.7.73-.72,2.06-.47,2.8-1.18.17-.16.33-.38.56-.36.15.01.3.13.43.06.09-.04.13-.15.16-.25.32-.86,1.31-1.23,2.18-1.55.59-.22,1.22-.51,1.47-1.08.2-.45.15-1.02.47-1.38.18-.21.45-.31.71-.4.32-.12.64-.24.95-.35.34-.13.69-.26.96-.51.26-.25.42-.65.28-.99.24.26.7.05.87-.26.17-.31.18-.69.35-1.01.17-.31.64-.52.87-.25.03-.44-.24-.84-.28-1.27-.11-1.1,1.18-1.91,1.23-3.01.04-.85-.66-1.54-1.3-2.1-.25-.21-.54-.44-.86-.4-.15.02-.29.09-.43.11-.23.02-.46-.1-.64-.25-.59-.45-1.05-1.08-1.28-1.78-.15-.44-.21-.92-.47-1.31-.29.58-.59,1.16-.9,1.74-.18.33-.36.66-.63.92-.74.72-1.91.73-2.95.69-.06-.8-.22-1.6-.46-2.37-.04-.13-.1-.28-.22-.34-.27-.14-.54.21-.56.52-.02.3.05.64-.13.88-.29-.58-.59-1.15-.88-1.73-.13-.25-.26-.5-.43-.72-.38-.46-.93-.73-1.41-1.09-.89-.68-1.5-1.72-1.64-2.84.35-.09.7-.18,1.04-.27.14-.04.29-.07.43-.11.06-.01.11-.03.17-.04.11-.09.21-.18.32-.27.29.31.5.68.63,1.08.31.1.58.3.78.55.28.35.41.8.72,1.12.64.67,1.78.55,2.53,1.09.19.14.36.32.58.43.22.1.51.1.65-.1.2.22.48.36.78.4.09-.25.27-.47.5-.61.13.04.24.14.31.26.18-.1.27-.32.22-.51.39-.18.88.05,1.13.4.25.35.32.8.38,1.23.34-.1.7-.06,1.05-.02.91.1,1.81.21,2.72.31.4.05.82.09,1.19-.05-.14.01-.27.03-.41.04.25-.15.89-.22,1.18-.18.13.02.26.05.38.02.13-.03.24-.15.21-.27.08-.17.34-.09.47.03.14.12.31.28.48.2.11-.05.15-.18.24-.26.06-.05.15-.07.23-.09.36-.09.72-.18,1.09-.27.01.29.05.64.31.79.21.12.53.1.62.32.03.07.02.16.03.23.04.28.3.47.56.57.26.1.55.12.81.24.06.03.12.07.15.13.02.06.01.12.02.18.04.2.33.23.46.39.12.13.13.35.29.43.08.04.17.03.26,0,.31-.08.57-.33.67-.63.1.47-.28.99-.76,1.03-.03.19.11.37.24.51.32.35.63.7.95,1.05.13.14.27.29.44.37.35.15.78-.01.99-.33.21-.31.22-.74.09-1.09-.07-.18-.17-.37-.11-.56.06-.18.38-.25.42-.06,0,.06-.01.11-.03.17-.12.4.03.82.22,1.19.19.37.43.72.49,1.13.04.22.02.44.05.66.09.69.6,1.26.71,1.95,0,.04,0,.09-.03.11,1.15,2.41,2.23,4.95,3.16,7.46.05.13.09.25.16.37.08.14.2.26.31.39.19.05.23.3.13.47.08.02.16.05.22.1.06.05.1.14.08.22-.01.04-.04.08-.02.12.02.04.07.03.11.04.11.03.12.18.1.29-.02.11-.05.25.05.32.03.02.06.03.09.05.12.1-.04.3.04.43.02.04.06.06.1.09.09.08.13.2.1.31-.01.05-.03.1-.03.14.01.12.17.16.24.25.16.21-.14.52-.02.75.05.1.17.15.2.25.04.12.03.29.09.4.23.44.79.86,1.18.56-.04-.39-.08-.8.12-1.14.07-.12.18-.23.24-.36.14-.34-.07-.73-.01-1.09.06-.32.33-.59.35-.92.02-.23-.09-.45-.18-.67-.26-.7-.24-1.47-.28-2.21-.06-1.24-.3-2.48-.71-3.66-.04-.12-.09-.25-.09-.37,0-.16.07-.31.14-.46.16-.35.33-.69.49-1.04.1-.21.2-.43.17-.66-.02-.18-.12-.35-.13-.53,0-.17.06-.33.11-.48.32-.93.17-1.95.27-2.93.07-.73.29-1.47.1-2.17-.05-.2-.14-.4-.14-.6,0-.44.35-.79.63-1.13.28-.34.49-.87.2-1.2.57.62.63,1.55,1.05,2.28.25.44.62.8.92,1.21.25.36.44.76.62,1.16.49,1.14.86,2.33,1.1,3.56.36-.63.22-1.42.07-2.13.49,1.76.98,3.53,1.47,5.29.15.52.29,1.05.36,1.59.06.46.07.93.1,1.39.08,1.09.29,2.17.58,3.23-.06-.58-.12-1.15-.19-1.73Zm-80.94-51.57c-.13-.02-.26-.06-.37,0-.11.05-.19.18-.31.18-.02,0-.05,0-.06-.03,0-.01,0-.03,0-.05,0-.08.01-.17.07-.23.07-.07.19-.08.25-.17.02-.03.03-.06.05-.08.04-.02.09,0,.12.01.04.02.07.06.11.06.04,0,.1-.02.09-.06,0-.02-.01-.03-.02-.05-.06-.08-.13-.18-.08-.26.03-.05.68.06.72.13.04.09-.06.13-.09.19-.05.08-.05.19-.11.27-.07.1-.22.11-.35.09Zm1.05.3c-.11.03-.21.09-.29.18-.07.08-.12.19-.21.24-.03.02-.07.03-.1,0-.04-.03-.02-.1.01-.15.07-.11.14-.21.21-.32.02-.04.05-.07.08-.1.03-.03.07-.06.1-.09.09-.08.26-.24.37-.1.1.13-.04.3-.17.33Zm2.17-1.02c.26.15-.31.16-.4.11-.02-.01-.04-.03-.06-.04-.09-.06-.22-.03-.33-.04-.04,0-.1-.03-.09-.07.01-.03.05-.03.08-.03.23,0,.59-.04.8.08Zm5.62-1.48s-.01.05-.03.06c-.03.02-.07.01-.1,0-.06-.02-.13-.06-.16-.12-.02-.03-.02-.07-.02-.1,0-.1.11-.33.25-.29.14.04.08.35.06.45Zm.31-5.37c-.06.04-.11.08-.17.12-.06.04-.14.03-.2,0-.03,0-.05-.02-.06-.04,0-.03.03-.06.06-.08.09-.04.4-.28.46-.09.03.1-.02.05-.07.08Zm-19.91,21.45c-.06.13-.03.27-.08.41-.03.09-.09.17-.11.26,0,.04,0,.09-.01.13,0,.04-.04.08-.08.09-.07,0-.11-.08-.1-.15,0-.11.07-.22.09-.33.01-.07,0-.15.02-.22.01-.07.04-.13.06-.2.02-.09.17-.61.3-.29.05.12-.04.2-.09.3Zm22.02-13.17s-.06-.02-.09-.04c-.1-.07-.22-.11-.34-.13-.04,0-.09-.01-.12-.05-.04-.05-.02-.12-.05-.18-.03-.07-.12-.09-.15-.16-.02-.05,0-.11-.03-.16-.04-.09-.2-.1-.22-.2,0-.04.02-.09.06-.12.24-.17.59-.04.65.26.03.15-.1.14-.15.25-.05.14.12.22.22.25.07.02.14.04.19.09.05.05.08.14.03.19Zm2.16-4.6s.06-.03.1-.03c.08,0,.15,0,.23,0,.09,0,.26.05.17.16-.07.09-.31,0-.4-.02-.03,0-.06-.02-.08-.04-.02-.02-.03-.06-.02-.08Zm-2.09.41s-.07-.02-.1-.05c-.03-.03-.08-.05-.12-.08-.09-.05-.18-.09-.28-.14-.03-.01-.06-.03-.08-.06s-.03-.07,0-.09c.03-.03.08-.02.12,0,.08.03.13.04.21.07.04.03.06.05.1.08.04.03.09.06.12.11.03.04.05.1.03.15Zm.13-2.06s-.03,0-.04,0c-.06-.02-.12-.03-.17-.07-.03-.02-.06-.05-.1-.06-.05-.01-.12,0-.13-.04-.01-.03.03-.06.06-.08.07-.04.17-.08.23-.03.03.03.08.02.08.02.03.03,0,.07.06.13.02.02.04.04.04.07,0,.03,0,.06-.03.07Zm.03-1.09s.04-.03.07-.03c.09,0,.23,0,.29-.07.05-.07-.02-.16.09-.2.21-.08.04.26.28.22.02.02.01.06-.01.08-.02.02-.06.02-.09.02-.05,0-.1,0-.13-.03-.02-.02-.03-.07-.06-.06-.03,0-.04.04-.03.07,0,.03.01.06,0,.08-.02.02-.05.02-.07.01l-.24-.04s-.06-.01-.07-.04Zm2.44,5.27c-.09.09-.24.07-.37.05-.13-.02-.29,0-.33.13,0,.03-.01.06-.03.08-.03.03-.09.01-.13-.01-.29-.18-.54-.41-.79-.63-.15-.14-.31-.28-.46-.42,0,0-.02-.02-.03-.03-.02-.04.02-.08.06-.09.04-.01.08,0,.12.02-.07-.02,0-.16.04-.18.06-.04.14,0,.2-.03.07-.05.04-.11.14-.15.06-.03.16-.02.23-.03.14,0,.22.03.28.16.04.09.01.13.11.18.08.04.18.03.26.07.13.06.26.11.39.17.04.02.07.03.1.07.03.05.02.13.07.17.03.02.07.01.11.03.02.02.04.04.05.07.05.13.1.3,0,.4Zm.36-2.46s-.03-.02-.04-.03c-.06-.06-.12-.11-.18-.17-.06-.05-.12-.12-.1-.19.05-.02.11,0,.16.03.12.07.2.1.34.13.07.02.22.04.27.1.16.21-.31.14-.4.14-.02,0-.03,0-.05,0Zm1.85,1.65c-.04.11-.14.08-.23.11-.09.02-.18.11-.24.05-.04-.03-.04-.09-.07-.12-.09-.11-.31.09-.41-.02-.01-.01-.02-.03-.01-.04.1.02.22-.01.29-.09.02-.07-.04-.14-.11-.16-.07-.02-.14-.02-.21-.05-.08-.03-.15-.1-.23-.11-.08,0-.19.03-.22-.04,0-.02,0-.05,0-.07.01-.09.03-.17.04-.26.11-.04.24.04.25.16.08-.04.15-.09.2-.15.01-.02.03-.03.03-.05,0-.02,0-.03-.02-.05-.07-.1-.2-.16-.32-.14-.09.02-.19.07-.28.02-.03-.02-.05-.04-.07-.06-.06-.07-.12-.14-.18-.21.14.03.28.05.42.08.04,0,.08.02.11.04.01.01.03.03.04.05.02.01.05.01.07,0,.14,0,.29.08.36.21.02.03.03.07.05.09.03.03.08.05.12.08.12.08.17.24.28.34.07.06.15.09.22.15.06.05.12.16.09.24Zm.68,11.03s-.04,0-.06,0c-.02,0-.04-.03-.05-.04-.08-.08-.17-.15-.27-.2-.03-.01-.07-.02-.09-.05s-.03-.07,0-.09c.02-.01.04-.01.06-.01.18.02.33.2.52.19.1,0,.42-.12.4.11-.02.18-.38.1-.5.1Zm.53-10.12s-.03,0-.05,0c-.02,0-.03-.02-.04-.03-.05-.04-.1-.07-.16-.1-.04-.02-.09-.03-.12-.07-.03-.03-.04-.1,0-.13.04-.02.1,0,.14.02s.08.05.13.06c.12.03.4,0,.44.19.03.14-.22.07-.32.06Zm.88,1.36s-.05-.02-.07-.05c-.02-.02-.02-.06,0-.08.02-.02.04-.01.07-.02.08-.02.11-.13.07-.2-.04-.07-.13-.11-.21-.12-.08-.01-.17,0-.25-.01.01-.09.11-.15.21-.14.09,0,.18.06.25.11.07.05.15.11.24.14.04.01.08.02.1.05.02.02.03.05.05.07.03.02.08,0,.12.02.03.01.04.04.07.05.1.05.16-.05.24.05.03.04.09.18.09.24.01.14-.03.15-.13.14-.1-.01-.18-.02-.29-.02-.06,0-.12-.02-.18-.05-.13-.05-.26-.1-.39-.16Zm1.48,10.62s-.06.02-.09.02c-.18,0-.37,0-.55-.03-.02,0-.05,0-.07,0-.05.02-.04.11-.09.15-.13.11-.16-.09-.17-.16,0-.04,0-.1.04-.12.02-.01.05,0,.07-.01.02,0,.04-.02.06-.03.07-.04.15-.02.23-.02.1,0,.21,0,.31-.02.03,0,.07-.02.1,0,.04.02.06.07.1.1.03.01.06.02.08.04.02.03,0,.06-.02.08Zm7.17-1.09c.03.08.04.17.02.26-.02.08-.08.16-.16.18-.03,0-.07,0-.08-.03,0-.01,0-.03,0-.04.03-.09.04-.19.03-.28-.02-.1-.06-.21,0-.29.05-.07.15-.24.23-.19.17.1-.04.26-.05.34,0,.02,0,.03,0,.05Zm-53.28,40.92c-.07.03-.14.02-.22.02-.07,0-.16.02-.19.09-.02.08-.09.14-.16.17-.07.04-.15.05-.22.06-.03,0-.06.01-.08,0-.07-.02-.08-.12-.04-.18.03-.06.09-.1.13-.16.05-.07.08-.16.16-.2.04-.02.08-.02.12-.02.12,0,.24,0,.37,0,.04,0,.09,0,.13.02.04.02.07.05.07.1,0,.04-.03.07-.07.09Zm1.59,12.83c0-.06,0-.12,0-.18,0-.12-.04-.25-.15-.3-.05-.02-.12-.03-.14-.09-.02-.04,0-.09-.01-.13-.01-.03-.05-.04-.07-.06-.07-.04-.11-.13-.08-.2.03-.07.15-.09.19-.03.04.06,0,.15.02.22.13.08.34-.04.44.07.03.04.04.09.08.12.04.05.11.05.18.05.15-.01.25-.03.34.1.06.08.08.4-.11.31-.02-.01-.04-.03-.06-.04-.07-.05-.18-.05-.25,0-.05.05-.08.12-.12.18-.04.06-.11.12-.17.1-.06-.02-.09-.08-.1-.13Zm1.16.89c-.02.1-.06.2-.07.31-.01.1,0,.2,0,.3,0,.21-.08.41-.14.6-.03.1-.07.2-.13.28-.07.08-.17.13-.27.1-.15-.04-.2-.22-.31-.33-.03-.03-.07-.06-.1-.1-.06-.08-.04-.21.04-.28.16.04.33,0,.46-.11-.06-.19.19-.36.18-.56,0-.06-.03-.11-.03-.17,0-.08.03-.15.05-.22.04-.13.06-.26.06-.39,0-.03,0-.07.01-.09.09-.16.23.06.26.14.04.14.03.37,0,.52Zm1.07-12.38c-.02.07-.03.14-.05.21,0,.03-.02.07-.05.08-.03.02-.07,0-.09-.03-.02-.03-.03-.06-.04-.1-.03-.09-.1-.18-.18-.24-.03-.02-.05-.03-.07-.06-.06-.07-.03-.17-.04-.25,0-.08-.05-.15-.11-.19-.02-.01-.04-.03-.05-.04-.03-.03-.03-.08-.02-.12.09-.34.27.2.31.22.06.03.13.02.17.07.02.03.02.06.04.09.04.07.13.09.17.16.03.06.02.13,0,.19Zm18.31,3.59s-.05.07-.07.1c-.06.07-.13.15-.19.22-.02.02-.04.04-.06.05-.02,0-.04,0-.07,0-.06-.01-.13,0-.17-.04-.03-.03-.03-.07-.05-.11-.03-.06-.1-.1-.16-.14-.02-.01-.04-.02-.05-.04-.01-.03.01-.06.04-.08.03-.02.06-.03.08-.04.07-.05.09-.14.14-.21.04-.06.11-.09.19-.1.1-.02.27-.04.33.05.06.09.08.25.04.34Zm7.06,23.94s-.08.05-.12.08c-.11.11-.05.31-.14.44-.02.03-.06.06-.1.07-.06,0-.11-.04-.13-.09-.02-.05-.02-.11-.02-.17,0-.27,0-.55.01-.82,0-.08-.01-.18-.09-.21-.05-.02-.13,0-.15-.05,0-.02,0-.04,0-.07.02-.06.08-.11.14-.11.12,0,.08.09.12.14.07.08-.07.07.1.08.13.01.22-.08.34.01.2.14.22.57.02.71Zm10.07,24.55c-.02.11-.11.24-.21.2-.07-.03-.08-.11-.12-.17-.1-.16-.32-.17-.51-.16-.04-.1.03-.2.11-.27.09-.09.2-.17.32-.2.12-.03.26-.02.37.06.09.04.02.11.05.24.02.1.02.2,0,.3Zm4.5-5.25c0,.11-.03.23-.12.3-.14.1-.33-.02-.5,0-.11.01-.2.09-.29.15-.2.13-.41.18-.62.27-.15.07-.28.21-.44.24-.04-.14.05-.26.15-.36.22-.21.48-.38.77-.49.08-.03.17-.06.24-.11.07-.04.12-.11.18-.15.13-.08.3-.08.46-.07.03,0,.07,0,.1.02.06.04.06.13.06.2Zm12.18-40.78c.15-.1.19-.14.3-.28.08-.1.18-.18.31-.15.32.08.29.55-.04.6-.18.02-.36.01-.54-.03-.04-.01-.09-.03-.09-.07,0-.03.02-.05.05-.06Zm-1.25,12.09c.12-.15.19-.35.18-.54,0-.09-.02-.18.03-.26.14-.25.32.13.35.23.06.22,0,.46-.06.67-.03.1-.06.22.01.29.03.04.09.05.13.08.15.1.21.33.39.35.05,0,.11,0,.14.04.02.02.02.05.03.08.03.2.03.41.02.61,0,.06-.01.13-.05.18-.04.05-.12.07-.16.02-.02-.02-.03-.05-.03-.08-.04-.18-.02-.4-.15-.53-.06-.06-.14-.09-.21-.15-.06-.05-.09-.12-.13-.19-.12-.21-.26-.39-.44-.55-.05-.05-.11-.11-.1-.18,0-.03.03-.06.05-.09Zm-8.75-24.54c.08.02.14.58.17.66.01.05.02.09.05.13.05.06.14.09.16.17.03.08-.05.17-.13.18-.08.02-.17,0-.25-.04-.03-.01-.07-.02-.09-.05-.03-.04-.03-.09-.03-.13,0-.11-.06-.96.12-.92Zm-.45,30.9c.03-.05.08-.09.13-.13.09-.08.23-.3.36-.16.09.09-.05.35-.12.41-.04.04-.09.06-.12.11-.12.15.02.41-.1.55-.03.03-.08-.03-.09-.08-.02-.18-.05-.35-.07-.53,0-.06-.01-.12.01-.17Zm-.92,12.02s-.02.02-.03.04c0,.01,0,.03,0,.04.03.07.05.16.02.23-.01.03-.04.05-.06.07-.05.05-.1.1-.16.16-.05.05-.1.1-.16.13-.06.03-.14.04-.2.01-.01,0-.02-.01-.03-.02-.03-.04.01-.09.03-.14.01-.04,0-.08,0-.13,0-.1.03-.2.06-.29.04-.12.09-.24.19-.32.11-.09.25-.1.38-.11.05,0,.11,0,.15.02.14.1-.15.27-.2.32Zm.26-9c-.1-.13-.17-.28-.18-.44,0-.18.06-.35.13-.51.01-.03.03-.07.06-.09.05-.03.12-.01.15.03.04.05.04.11.03.16.03.28-.06.55-.1.83,0,.02,0,.04-.02.05-.03.02-.06,0-.08-.03Zm1.52,6.78c-.03-.3-.21-.57-.47-.72-.1-.06-.23-.11-.27-.22-.03-.09,0-.2-.04-.29-.06-.13-.23-.16-.32-.26-.05-.06-.07-.13-.09-.21-.07-.36,0-.74-.12-1.08-.03-.08-.07-.16-.1-.24-.04-.12-.04-.24-.04-.36,0-.57-.02-1.14-.02-1.71,0-.72.35,0,.47.27.06.13-.01.27-.03.41-.02.14.09.33.22.27-.07.11.14.21.17.34.01.08-.06.16-.08.24-.08.28.43.5.33.78-.02.06-.07.11-.07.17,0,.1.09.16.16.23.15.15.17.43.04.6-.18-.03-.36.18-.3.36.05.16.22.23.37.3.15.08.3.21.26.37.18-.07.45-.11.53.07.01.03.02.07.05.09.03.03.08.01.13.02.12.02.13.2.07.32-.05.11-.12.25-.05.35.08.1.26.09.31.21.06.14-.15.29-.1.43.05.13.28.12.33.26.04.11-.08.22-.07.34.01.1.11.16.19.22.07.07.13.19.05.26-.22-.02-.45-.05-.64-.16-.19-.11-.34-.33-.31-.55.01-.07.04-.15.03-.22-.02-.19-.28-.34-.19-.5-.13-.13-.26-.25-.39-.38Zm3.57,1.51c-.11-.03-.09-.19-.18-.26-.14-.12-.37.13-.52.03-.07-.04-.08-.14-.13-.2-.17-.19-.36-.15-.4-.46-.03-.19.01-.37.22-.39.39-.03.84.61,1.02.88.05.07.11.14.13.23.02.09-.05.2-.14.18Zm2.81,2.61c.06.14-.05.3-.04.46,0,.07.03.14.06.21.08.19.15.38.23.57.04.1.08.2.06.31-.02.1-.13.2-.23.17.07.09.04.23-.02.32-.06.1-.14.18-.2.28-.11.19-.08.45.06.62.07.08.16.14.19.24.07.22-.2.49-.05.66.07.09.22.1.25.21.04.13-.14.25-.12.39.02.12.18.16.22.27.05.13-.09.27-.23.27-.14,0-.27-.08-.39-.16s-.26-.14-.4-.11c.04-.12-.01-.27-.12-.34-.04-.03-.1-.05-.13-.1-.11-.15.14-.34.12-.53-.03-.2-.35-.29-.31-.49.01-.07.08-.13.08-.21,0-.09-.08-.15-.13-.22-.15-.22-.02-.51.12-.74.05-.08.09-.15.14-.23.06-.1.15-.22.27-.21.11-.32-.21-.62-.26-.95-.03-.24.08-.48.11-.72.02-.24-.1-.51-.35-.54-.03-.28-.12-.81.29-.67.3.09.52.51.58.78.02.1.03.2.08.29.04.06.1.11.12.17Zm-2.05-42c.06-.08.18-.05.26.02.14.11.2.31.26.47.08.2.12.41.13.62,0,.08,0,.17-.07.21-.07.04-.17,0-.21-.08-.04-.07-.04-.16-.03-.25,0-.09,0-.19-.03-.27-.03-.09-.09-.17-.17-.21-.05-.02-.12-.04-.14-.09-.01-.02-.01-.05-.01-.07,0-.07,0-.14,0-.21,0-.04,0-.09.03-.13Zm-.89,4.72c.06-.04.15-.02.19.04.05.06.05.13.05.21.12-.02.25-.02.38,0,.03,0,.07.01.09.03.03.03.03.07.03.11,0,.11.04.21.04.31,0,.04-.03.08-.07.08-.02,0-.03-.01-.05-.02-.15-.1-.3-.2-.45-.3-.02-.01-.04-.03-.05-.05,0-.02,0-.05,0-.07-.02-.06-.09-.07-.14-.1-.07-.05-.1-.17-.03-.22Zm-.58,23.47c-.03-.35-.06-.78.24-.96.2-.12.46-.33.67-.37.22-.05.49-.03.71-.03.54,0,1.08.09,1.42.56.07.09.12.2.12.31,0,.08-.03.16,0,.23.04.1.19.14.2.24.01.09-.08.15-.12.23-.04.08-.03.17-.04.25-.03.38-.37.67-.71.85-.08.04-.16.08-.2.16-.02.04-.03.08-.04.13-.04.22-.06.5.14.6.11.05.26.03.31.14.05.11-.09.23-.21.23-.12,0-.25-.04-.37-.01.03.09-.04.19-.13.23-.09.04-.19.04-.28.03-.18,0-.37-.02-.55-.03-.13,0-.27-.02-.37-.1-.09-.07-.15-.2-.26-.2-.12,0-.2.15-.32.14-.06,0-.12-.05-.17-.03-.08.02-.09.15-.16.18-.07.03-.15-.03-.18-.11-.03-.07-.02-.15-.05-.23-.03-.1-.11-.17-.14-.27-.03-.11.02-.23.06-.34.1-.28.12-.59.08-.88-.02-.11-.04-.24.04-.32.04-.04.09-.05.13-.08.18-.11.18-.36.16-.57Zm-.63-35.32c.06-.05.12-.09.17-.15.07-.1.03-.64.26-.46.14.11.11.51.08.66,0,.03-.02.06-.04.08-.03.02-.07.03-.11.02-.1,0-.2-.01-.29-.03-.04,0-.1-.03-.1-.07,0-.02.02-.04.03-.05Zm.04,55.9c.06,0,.13,0,.17.04.1.08.02.25-.09.29-.12.04-.25,0-.37-.03-.35-.08-.72-.06-1.06.06.04.09.08.18.06.28-.02.09-.11.18-.21.15-.09-.02-.14-.13-.21-.18-.1-.08-.24-.07-.35-.06-.13-.34.2-.2.32-.22.23-.04.15-.2.33-.29.03-.01.06-.01.09-.01l1.32-.02Zm-.38-24.55c.15.08.14.48.13.61,0,.06-.02.12-.05.17-.05.09-.16.13-.25.19-.16.09-.29.21-.4.36-.06.08-.11.17-.18.23-.07.07-.17.11-.27.09.02-.49.26-.93.55-1.31.1-.12.28-.43.47-.33Zm-1-29.63c.09-.01.12-.13.11-.22,0-.09-.03-.2.04-.27.07-.07.34-.06.4.03.09.12-.05.29-.13.38-.08.09-.19.19-.31.16.04.08-.04.18-.13.17-.09,0-.15-.1-.14-.18,0-.03.01-.05.04-.07.03-.02.08,0,.12,0Zm5.63-22.37s-.06.18-.11.2c-.04.02-.08-.01-.1-.05-.02-.04-.02-.08-.04-.12-.03-.1-.11-.19.02-.25.06-.03.22,0,.26.06.08.1.01.08-.04.16Zm1.82-13.08c-.07,0-.14-.03-.22-.05-.02,0-.04,0-.06-.02-.02-.01-.03-.03-.04-.05-.07-.12-.14-.24-.21-.36-.03-.04-.05-.1,0-.13.08.01.16.03.24.05.03,0,.06.01.08.03.03.02.04.05.06.08.05.11.22.33.16.45Zm.14-4.96c-.09.04-.19.08-.28.12-.28.13,0,.3.03.49.01.1-.06.19-.04.28,0,.02.02.05.02.07,0,.02-.02.05-.04.05,0,0-.02,0-.02-.01-.1-.08-.18-.17-.24-.27-.01-.02-.02-.03-.02-.05,0-.06.04-.11.05-.17.01-.08-.06-.17,0-.23.01-.01.03-.02.05-.03.04-.02.09-.05.12-.08.03-.04.05-.09.03-.14-.02-.05-.07-.09-.12-.11-.02,0-.04-.02-.05-.04-.01-.02,0-.05.03-.07s.05-.01.08-.02c.09,0,.19,0,.28.04.02.01.04.03.07.04.03,0,.06,0,.09,0,.04,0,.12,0,.11.07,0,.02-.1.04-.13.06Zm.47-9.24s-.07,0-.1,0c-.05-.02-.11-.02-.16-.02-.04,0-.08,0-.11.03-.03.02-.05.07-.03.1.07,0,.14.04.16.11.02.07-.02.14-.08.17-.03.01-.07.02-.11.03-.04.01-.07.03-.08.07,0,.04.02.1-.01.12-.01,0-.03.01-.04,0-.04,0-.08-.04-.09-.08,0-.04.02-.09.05-.11.02-.01.05-.01.07-.03.05-.03.04-.11,0-.17-.03-.05-.07-.11-.06-.17.03-.17.41-.26.54-.28.02,0,.04,0,.05,0,.01,0,.02.03.02.04,0,.03.02.07.01.1s-.02.07-.06.08Zm2.11,27.64c-.08.09-.3.1-.41.1-.03,0-.06,0-.09-.02-.02-.02-.03-.05-.04-.08-.04-.07-.13-.09-.21-.08-.08,0-.15.04-.23.04-.06,0-.12-.03-.13-.08-.02-.05.02-.11.06-.14.04-.03.1-.05.14-.08.04-.03.07-.07.12-.1.11-.06.28.02.37-.07.05-.05.07-.13.13-.15.02,0,.05,0,.08,0,.04,0,.08.01.12.02.05,0,.1.02.12.07.02.05-.02.11-.07.14-.04.04-.09.08-.09.13.01.12.23.16.12.3Zm10.72-9.95s.08-.02.12-.02c.15,0,.3,0,.46,0,.04-.03,0-.1-.05-.12-.05-.02-.1-.02-.14-.06-.02-.02-.03-.04-.04-.06-.04-.04-.1-.05-.11-.11,0-.02,0-.04.02-.06.01-.05,0-.11-.02-.16,0-.05,0-.12.06-.14.07-.02.11.06.16.11.12.12.31.12.4.28.03.05.03.11,0,.15-.02.02-.04.03-.06.06-.02.04,0,.09,0,.13,0,.07-.09.11-.16.11-.07,0-.14-.03-.21-.03-.14,0-.28.09-.41.04-.02,0-.04-.02-.05-.03-.02-.03,0-.08.04-.1Zm-.7.38c.08-.04.19,0,.25-.06.03-.03.04-.07.05-.1.06-.22.19-.03.18.11-.02.16-.13.3-.12.47.01.16.13.28.24.4.17.19.32.44.28.69,0,.06-.06.13-.12.1-.01,0-.02-.02-.03-.03-.1-.14-.2-.28-.29-.42-.06-.09-.12-.17-.16-.27-.06-.16-.06-.33-.15-.48-.04-.07-.09-.13-.12-.19-.03-.07-.05-.15-.01-.22Zm-8.82-19.91c.05.05.1.11.17.13.02,0,.04,0,.05.02.02.01.02.04.04.06.02.02.05.02.08.03.1.02.15.1.23.12.08.03.15-.03.23.04.06.06.08.16.03.23-.01.02-.03.03-.05.03,0-.07-.05-.13-.11-.17-.06-.03-.14-.04-.2,0,0-.04-.02-.09-.06-.11-.04-.03-.08-.03-.13-.04-.07-.01-.13-.03-.2-.04-.03,0-.06-.01-.08-.04-.03-.03-.02-.07-.04-.11-.02-.04-.06-.07-.1-.1-.04-.03-.07-.08-.06-.13.07,0,.14.04.19.1Zm1.86,30.63s0,.06,0,.09c0,.04-.04.08-.09.08-.04,0-.08-.02-.11-.05-.02-.03-.02-.06-.02-.09,0-.03.02-.05.01-.08,0-.03-.01-.05-.02-.07-.05-.1-.12-.21-.23-.2-.02,0-.04,0-.06,0-.03-.01-.04-.04-.04-.07,0-.03,0-.06,0-.09,0-.04-.03-.07-.06-.09-.02-.03-.05-.06-.05-.1,0-.04.02-.08.06-.08.07,0,.2.14.27.18.06.03.1.05.15.1.05.06.06.15.13.2.05.04.2.03.19.14-.01.06-.11.07-.13.14Zm8.31.11c-.12.03-.25-.01-.37-.03-.19-.02-.39.03-.52.17-.03.04-.07.08-.12.09-.04,0-.08-.02-.13-.03-.08,0-.14.06-.19.11-.19.16-.48.2-.7.09-.09-.04-.16-.11-.25-.15-.3-.15-.69-.07-.95-.27-.1-.08-.18-.19-.27-.29-.09-.1-.21-.18-.34-.16-.09.01-.18.07-.27.06-.06,0-.11-.05-.17-.07-.21-.09-.51,0-.62-.21-.03-.05-.04-.11-.08-.15-.04-.03-.09-.04-.13-.06-.04-.02-.07-.07-.1-.11-.15-.24-.25-.5-.35-.76-.06-.15-.13-.27-.19-.42.11-.31.19-.64.09-.95-.03-.1-.08-.19-.1-.3-.04-.3.27-.54.56-.64-.17-.16-.38-.27-.6-.31-.07-.01-.14-.02-.2-.06-.04-.03-.07-.07-.1-.1-.12-.13-.28-.2-.41-.32-.07-.06-.12-.13-.18-.2-.24-.28-.54-.51-.88-.65-.09-.04-.17-.07-.25-.12-.05-.03-.1-.07-.15-.11-.15-.12-.29-.24-.43-.36-.14-.12-.28-.23-.42-.35-.06-.05-.13-.1-.17-.17-.04-.05-.06-.12-.09-.18-.1-.26-.21-.51-.31-.77-.03-.08-.07-.17-.12-.23-.04-.06-.1-.1-.16-.14-.22-.17-.44-.34-.66-.52.11-.13.18-.29.18-.46.02-.27,0-.55-.06-.81.21.02.41.04.62,0,.2-.04.4-.16.49-.34.01-.03.03-.06.02-.09-.01-.05-.07-.07-.09-.11-.04-.08.05-.17.13-.18.09-.01.18.01.27,0s.17-.12.11-.19c-.03-.04-.08-.05-.1-.09-.04-.09.1-.14.18-.19.13-.09.13-.28.23-.4.15-.19.44-.15.66-.06.22.08.47.19.68.09.06-.03.11-.07.17-.09.15-.04.3.06.42.15.18.14.37.28.55.42.04.03.08.06.1.1.05.09.02.2.01.3,0,.1.04.23.14.24.24.06.54.1.71-.08.03-.03.06-.07.1-.07.08,0,.1.11.15.17.05.06.13.08.2.1.26.08.49.25.64.48-.18-.05-.39.08-.43.27-.15-.09-.37.02-.38.2,0,.09.03.17.04.25,0,.08-.03.19-.12.2-.11,0-.15-.15-.15-.26,0-.21,0-.43,0-.64-.1-.09-.26.06-.39.07-.13.02-.24-.07-.36-.13-.12-.06-.28-.08-.35.03-.26-.17-.63-.14-.86.06-.03.02-.05.05-.06.09,0,.03.01.07.03.1.12.2.25.41.37.61-.06.07-.18.03-.25-.04s-.16-.14-.25-.12c-.04.01-.07.04-.1.07-.09.08-.18.17-.27.25.21.12.42.23.63.35.03.02.05.03.08.05.21.12.42.24.6.4.05.05.1.1.13.16.05.11.05.23.09.35.04.11.14.23.26.21.11-.02.22-.14.29-.06.04.05.01.12.04.18.02.04.06.07.09.09.27.16.6.22.91.16-.02.46.16.93.5,1.24.08.07.17.14.28.15.04-.21-.04-.43-.21-.57.25-.06.47-.26.72-.2.11.02.2.09.28.16.34.26.67.52,1.01.78.07.05.14.12.13.2,0,.04-.03.08-.06.11-.08.1-.17.21-.28.27-.12.06-.27.08-.38,0-.06-.05-.13-.12-.19-.08-.04.03-.04.08-.06.12-.04.06-.13.05-.2.07-.1.03-.15.14-.15.24,0,.1.03.2.07.29.06.15.14.32.29.39.09.04.19.03.28.05.26.04.49.23.58.48.03.09.05.2.13.27.08.07.19.07.29.11.16.08.23.27.26.45.03.18.04.37.16.51.29.37.37.86.58,1.28.03.05.05.1.09.14.09.08.25.08.31.19.05.11-.06.24-.18.27Zm.54-6.13s-.09.03-.14.03c-.07,0-.15-.02-.22,0-.04,0-.07.03-.11.03-.04,0-.08,0-.1-.03-.02-.03-.01-.07,0-.1.05-.11.09-.15.09-.28,0-.08-.05-.13.04-.14.09-.01.4.23.45.31.03.05.03.13-.02.18Zm.21-3.02s-.13.03-.19,0c-.08-.03-.16-.05-.23-.1-.06-.04-.11-.1-.18-.14-.08-.04-.16-.04-.25-.04.03-.14.06-.3,0-.43-.03-.07-.08-.12-.13-.18-.09-.1-.17-.2-.26-.3-.06-.07-.13-.16-.13-.26,0-.04.01-.08.02-.11.02-.05.03-.1.05-.15,0-.03.02-.07.05-.09.09-.08.25.26.33.31.05.03.12.05.17.09.1.07.15.18.2.29.15.31.32.61.51.89.05.07.09.16.03.22Zm1.07-1.68c-.19-.02-.39.02-.58.03-.03,0-.06,0-.08,0-.03-.01-.04-.04-.04-.07,0-.03.04-.04.06-.05.17-.05.78-.27.85.04.03.15-.12.06-.22.05Zm4.77,2c-.18-.14-.37-.31-.6-.34-.05,0-.1,0-.14-.02-.05-.02-.09-.06-.09-.1,0-.05.05-.1.1-.11.05-.01.11,0,.16.02.39.14.64.43.99.63.06.03.11.06.17.09.1.07.18.18.28.25.03.02.07.04.09.07s.03.08,0,.1c-.15-.09-.29-.17-.44-.26-.18-.11-.36-.21-.52-.34Zm2.41,3.24s-.06,0-.09,0c-.1-.02-.19-.08-.27-.15-.03-.03-.05-.06-.08-.07-.12-.08-.3.02-.42-.06-.03-.02-.05-.04-.07-.05-.05-.03-.11-.03-.17-.03-.16,0-.34.03-.49,0-.13-.02-.21-.16-.03-.16l.51-.07s.07,0,.11,0c.04,0,.08.03.12.04.13.03.27-.03.4.01.04.01.07.04.11.06.12.08.24.16.34.26.03.03.06.07.07.11.01.04,0,.09-.04.11Zm.31-5.59s-.12.04-.17,0c-.05-.04-.08-.09-.12-.14-.13-.15-.36-.18-.5-.32-.08-.08-.12-.19-.16-.29-.04-.1-.08-.2-.12-.31-.03-.08-.06-.16-.06-.24,0-.11.04-.22.01-.33,0-.04-.03-.07-.02-.11.01-.05.08-.08.13-.08.06,0,.11,0,.17,0,.05-.01.1-.05.15-.08s.12-.04.16,0c.02.01.03.03.04.05.09.11.24.03.33.11.1.08-.02.14-.04.25,0,.05-.09.05-.13.02-.04-.03-.09-.08-.14-.07-.05,0-.08.07-.1.11-.03.05-.08.09-.12.07.04.08.07.15.11.23,0,0,0,.01.01.02.02.05.05.1.07.15-.06,0-.11.01-.17.02-.02.06.07.1.13.12.13.03.24.11.35.18.08.05.16.14.12.22-.04,0-.09,0-.12.02-.04.08.04.16.11.21.07.05.13.15.08.22Zm1.08-1.52s-.06-.04-.1-.05c-.11-.04-.22.07-.33.07-.11,0-.18-.11-.28-.15-.04-.01-.09-.03-.08-.07,0-.02.03-.04.05-.04.02,0,.05,0,.07,0,.07,0,.16-.06.22-.01.01,0,.02.02.03.03.04.04.1.05.15.03.08-.04-.02-.28.06-.34.07-.06.17,0,.21.06.06.08.29.55,0,.47Zm.46-5.3s.08-.03.12,0c.04.02.08.05.12.04.12-.04.31.29.41.39.03.03.07.07.07.11,0,.04-.04.09-.08.08,0,0-.01,0-.02-.01-.12-.09-.25-.18-.37-.26-.06-.04-.11-.08-.16-.13-.05-.04-.1-.1-.1-.17,0-.01,0-.03,0-.04Zm.58,3.31c-.11-.06-.27,0-.38-.07-.03-.02-.06-.05-.09-.08-.03-.02-.06-.03-.08-.05-.02-.02-.03-.07,0-.09.02-.01.04-.01.06-.01.11.01.2.07.3.09.1.02.2-.04.28-.01.09.02.23.3.06.3-.06,0-.1-.05-.15-.08Zm.94,2.27c-.07,0-.12-.05-.17-.1-.08-.09-.18-.16-.28-.21-.03-.02-.07-.03-.1-.06-.02-.02-.04-.05-.06-.07-.04-.06-.09-.13-.13-.19-.03-.05-.06-.1-.05-.15.01-.03.44.23.48.28.04.05.06.11.1.17.07.11.12.1.23.16.04.02.06.06.05.1,0,.04-.04.08-.08.08Zm.83,22.93s-.04.09-.08.1c-.02,0-.04,0-.06,0-.03,0-.07,0-.1,0-.08,0-.17,0-.23-.06-.06-.06-.07-.15-.07-.23.06.02.11-.04.12-.1.01-.1-.11-.25-.05-.34.06-.09.15-.05.21,0,.11.11.3.45.27.6Zm.25-18.84c-.08.03-.17.02-.26.04-.05,0-.1.02-.15.02-.03,0-.06-.01-.09-.02-.08-.02-.16-.03-.24-.02-.03,0-.06,0-.07-.02-.02-.02,0-.05.01-.07.02-.02.05-.02.07-.03.08-.02.18-.06.2-.14,0-.02,0-.04.01-.05.04-.08.19-.05.23-.13.02-.04,0-.09,0-.13.01-.04.05-.06.09-.06.04,0,.08.02.1.05.01.02.02.04.04.05.02.01.05.01.08.02.21.05.13.45-.03.51Zm7.38,23.43s-.05.04-.06.06c0,.02-.01.04-.02.06-.02.06-.06.1-.12.11-.06.01-.12-.01-.15-.06-.05-.07-.04-.17-.09-.24-.02-.04-.06-.06-.1-.08-.02,0-.03,0-.05-.02-.03-.02-.03-.07-.03-.11,0-.05.01-.11.06-.14.03-.02.06-.02.09-.03.09-.04.1-.15.1-.25,0-.1.06-.16.15-.09.06.05.09.21.1.28.02.07.02.15.05.21.02.05.06.09.08.14s.03.11,0,.15Zm2.88-7.25c-.08-.03-.14-.11-.18-.18-.1-.16-.21-.32-.29-.49-.03-.08-.06-.16-.11-.22-.05-.07-.13-.12-.21-.12.02-.17-.01-.34-.08-.5-.02-.05-.04-.09-.04-.14,0-.11.09-.17.17-.11.06.05.09.24.11.31.02.06.04.11.07.17.17.35.34.7.51,1.05.03.07.07.15.06.23Zm3.98-4.06s-.05,0-.07-.02c-.01-.02-.01-.05-.02-.08,0-.02-.02-.04-.03-.06,0-.03,0-.06-.03-.08,0,0-.02-.01-.03-.02-.03-.03-.04-.08-.03-.12,0-.06,0-.12,0-.18,0-.01,0-.03.01-.04.1-.06.16.1.17.16.02.13.03.26.03.4,0,.02,0,.04-.01.05Z"/>
          <path class="cls-1" d="m708.77,159.21c0,.32-.22.63-.52.74-.05.02-.1.03-.13.07-.02.02-.04.05-.07.07-.05.04-.13.01-.18-.02-.16-.09-.38-.2-.51-.07-.03.03-.06.08-.09.11-.05.05-.11.08-.18.11-.19.08-.38.15-.57.23-.05.02-.11.04-.16.07-.28.11-.55.22-.82.34-.12.05-.23.11-.36.13-.19.04-.6.02-.68.2.06,0,.12-.01.18-.02-.98.45-1.99.82-3.03,1.09-.21.06-.43.11-.6.24.2-.02.41-.05.61-.07-.44.25-.9.47-1.37.66.02-.1.03-.2.05-.3-.25.03-.47.23-.53.47-.67.28-1.34.55-2.01.83-.09.04-.19.08-.29.08-.14,0-.29-.05-.42,0-.06.03-.11.07-.16.11-.24.18-.57.2-.87.2.05.05.1.09.15.14-.49.54-1.48.23-2.04.7.08,0,.12.09.09.16-.03.07-.1.11-.16.15-.66.38-1.31.75-1.97,1.13-.16.09-.32.19-.43.33-.3.18-.59.36-.89.54-.12.07-.25.15-.34.26-.07.08-.11.17-.18.25-.25.29-.7.36-.91.68.13.03.27.05.4.08-.27.11-.35.45-.39.75-.01.09-.03.18-.04.26.25-.11.47-.29.64-.5.09.07.21.02.31-.04.85-.47,1.69-.94,2.54-1.41.61-.34,1.22-.67,1.84-.99.32-.16.64-.31.97-.46.1-.05.21-.09.32-.13.07-.03.15-.05.22-.07.13-.04.25-.08.38-.12.61-.19,1.21-.38,1.82-.57-.06.32-.66.25-.75.56.44-.05.85-.26,1.15-.58.02.1.03.21.05.31,1.05-.45,2.12-.83,3.2-1.21-.1,0-.15.15-.07.21.28,0,.59-.01.87-.03.85-.03,1.69-.21,2.48-.53.2-.08.4-.17.61-.18.14,0,.27.02.41,0s.28-.1.3-.24c-.48-.15-.99-.16-1.48-.05.33-.33.85-.44,1.29-.28.07-.15.19-.27.34-.33-.13-.11-.2-.28-.19-.45.16-.05.34.16.26.31.1-.03.23,0,.3.09-.12.16-.24.33-.36.49.17-.1.37.14.56.09.06-.02.11-.06.16-.11.18-.16.41-.27.58-.44.17-.17.29-.44.18-.66.07,0,.14,0,.21,0,.03.15.09.29.18.41.09-.17.28-.27.47-.27-.09-.04-.14-.14-.13-.24.11.16.34.24.53.17-.12-.19-.24-.38-.35-.58.14-.05.31-.04.44.04-.04.11.05.24.16.27s.23.01.35-.01c.2-.04.4-.09.6-.13-.07-.02-.07-.12-.02-.17s.13-.05.2-.05c.16,0,.32-.01.48-.02.11,0,.24-.01.32-.08.09-.07.11-.23.02-.29.2-.26.7.28.9.02-.01-.08-.1-.14-.18-.13.13-.16.33-.27.54-.29-.05-.1-.11-.2-.18-.29.49-.02.98-.04,1.47-.05-.03-.14-.13-.26-.26-.31-.06-.11.16-.15.25-.06.09.09.22.22.31.14-.04-.17.08-.34.24-.43.15-.08.33-.1.51-.11.02.07.08.13.15.16.22-.12.43-.23.65-.35.08-.05.17-.09.27-.09.09,0,.19.08.18.18.16-.1.34-.14.52-.18.71-.16,1.42-.31,2.13-.47-.52-.39-1.39.25-1.87-.18.35-.05.7-.11,1.05-.16-.08-.11-.15-.22-.23-.33-.36.03-.72.06-1.08.09-.04,0-.07,0-.11,0-.18.01-.36.03-.54.07-.15.03-.3.09-.44.05-.04,0-.07-.03-.11-.03-.08,0-.16.04-.23.07-.16.07-.35.09-.52.05-.03-.07-.06-.13-.08-.2-.13.09-.3.18-.42.09-.04-.03-.07-.07-.11-.09-.04-.02-.08-.01-.11,0-.52.04-1.05.08-1.57.17-.63.1-1.24.26-1.87.37-.41.07-.84.11-1.21-.07-.15-.08-.28-.21-.37-.36-.2.04-.41.09-.61.13,0,.04.01.07.01.11Z"/>
          <path class="cls-1" d="m670.3,181.35c.4-.2.8-.4,1.2-.6.1-.05.2-.1.27-.18.08-.09.12-.22.2-.32.13-.18.36-.26.53-.41.22-.19.34-.48.48-.74.36-.65.92-1.15,1.48-1.64.51-.44,1.01-.89,1.52-1.33-.06.13-.02.3.09.4.41-.59,1.16-.93,1.88-.85-.48.24-.94.51-1.37.83-.4.29-.78.61-1.16.92-.07.06-.14.12-.21.18-.47.4-.94.79-1.41,1.19.01.06.02.13.04.19.05.25.21.58.46.5-.35.31-.71.61-1.06.92.15.22.51.18.71,0,.2-.18.3-.44.44-.67.14-.23.38-.45.65-.41-.08-.13-.12-.29-.13-.44.28-.15.57-.3.85-.45,0-.35.28-.67.63-.71-.03-.16-.15-.3-.31-.34,1.31-1.11,2.63-2.22,3.94-3.33.12-.1.24-.2.38-.26.22-.09.48-.06.71-.15.22-.09.39-.41.21-.57-.08-.07-.19-.09-.26-.16-.11-.13,0-.34.15-.41.15-.07.33-.06.49-.09.18-.03.35-.11.51-.19.7-.33,1.46-.73,1.73-1.45.06-.17.09-.35.16-.52.17-.44.54-.76.86-1.09.05-.05.1-.1.15-.16-5.45,3.49-10.42,7.65-14.8,12.36Z"/>
          <path class="cls-1" d="m661.5,275.46c-.09-.44-.19-.88-.29-1.31-.06-.25-.12-.51-.29-.7-.15-.17-.37-.26-.56-.39-.82-.51-1.21-1.6-.91-2.52.26-.09.52-.17.78-.26.63-4.17-2.63-8.31-1.63-12.41.17-.68.44-1.33.62-2.01.6-2.37-.14-4.86-.98-7.16-.07-.18-.14-.37-.29-.49-.18-.15-.43-.16-.65-.25-.54-.21-.81-.79-1.08-1.3-.69-1.28-1.71-2.38-2.94-3.16-.1.11-.21.21-.31.32-.37-1.4-.95-2.75-1.71-3.99-.14.36-.28.73-.42,1.09-.2-2.17-.39-4.34-.59-6.52-.14-1.58-.29-3.18-.8-4.68-.07-.21-.15-.42-.23-.64-.09,1.51-.14,3.04-.14,4.58,0,15.43,4.58,29.78,12.44,41.79Z"/>
        </g>
      </g>
    </g>
  </g>
</svg>